<svg width="20" height="20" viewBox="0 0 20 20" fill="none" xmlns="http://www.w3.org/2000/svg">
<path fill-rule="evenodd" clip-rule="evenodd" d="M10 8.75C10.3452 8.75 10.625 8.47019 10.625 8.125C10.625 7.77981 10.3452 7.5 10 7.5C9.65481 7.5 9.375 7.77981 9.375 8.125C9.375 8.47019 9.65481 8.75 10 8.75ZM10 10C11.0356 10 11.875 9.16056 11.875 8.125C11.875 7.08944 11.0356 6.25 10 6.25C8.96444 6.25 8.125 7.08944 8.125 8.125C8.125 9.16056 8.96444 10 10 10Z" fill="#60635E"/>
<path fill-rule="evenodd" clip-rule="evenodd" d="M10 3.75C7.58375 3.75 5.625 5.70876 5.625 8.125C5.625 9.87119 6.29144 11.4781 7.15125 12.8212C8.01006 14.1628 9.039 15.2051 9.70563 15.8091C9.87919 15.9663 10.1208 15.9663 10.2944 15.8091C10.961 15.2051 11.9899 14.1628 12.8488 12.8212C13.7086 11.4781 14.375 9.87119 14.375 8.125C14.375 5.70876 12.4163 3.75 10 3.75ZM4.375 8.125C4.375 5.0184 6.89337 2.5 10 2.5C13.1066 2.5 15.625 5.0184 15.625 8.125C15.625 10.1896 14.8392 12.0304 13.9015 13.4952C12.9627 14.9617 11.8486 16.0876 11.1336 16.7354C10.4838 17.3242 9.51619 17.3242 8.86637 16.7354C8.15138 16.0876 7.03731 14.9617 6.09852 13.4952C5.16078 12.0304 4.375 10.1896 4.375 8.125Z" fill="#60635E"/>
</svg>
