<svg width="20" height="20" viewBox="0 0 20 20" fill="none" xmlns="http://www.w3.org/2000/svg">
<path fill-rule="evenodd" clip-rule="evenodd" d="M16.0681 13.155C16.2188 12.3975 16.25 11.41 16.25 10C16.25 8.59 16.2188 7.6025 16.0681 6.845C15.9331 6.15125 15.735 5.85938 15.5281 5.68687C15.2881 5.48687 14.8444 5.28625 13.905 5.15938C12.9481 5.02875 11.7037 5 10 5C8.29688 5 7.05188 5.02875 6.095 5.15938C5.15562 5.28625 4.71188 5.48687 4.47188 5.68687C4.265 5.85938 4.06687 6.15125 3.93187 6.845C3.78125 7.6025 3.75 8.59 3.75 10C3.75 11.41 3.78125 12.3975 3.93187 13.155C4.06687 13.8488 4.265 14.1406 4.47188 14.3131C4.71188 14.5131 5.15562 14.7137 6.095 14.84C7.05188 14.9712 8.29688 15 10 15C11.7037 15 12.9481 14.9712 13.905 14.84C14.8444 14.7137 15.2881 14.5131 15.5281 14.3131C15.735 14.1406 15.9331 13.8488 16.0681 13.155ZM10 16.25C16.875 16.25 17.5 15.7294 17.5 10C17.5 4.27063 16.875 3.75 10 3.75C3.125 3.75 2.5 4.27063 2.5 10C2.5 15.7294 3.125 16.25 10 16.25Z" fill="#60635E"/>
<path fill-rule="evenodd" clip-rule="evenodd" d="M3.75 6.87497H16.25V9.37497H3.75V6.87497Z" fill="#60635E"/>
</svg>
