<svg width="20" height="20" viewBox="0 0 20 20" fill="none" xmlns="http://www.w3.org/2000/svg">
<path d="M3.43745 7.00289C3.43745 10.9808 8.71349 16.25 12.6874 16.25C13.5572 16.25 14.3697 15.922 14.9687 15.3232L15.4895 14.7244C16.0937 14.1205 16.0937 13.0999 15.4635 12.4699C15.4479 12.4543 14.1927 11.4911 14.1927 11.4911C13.5677 10.8975 12.5833 10.8975 11.9635 11.4911L11.2031 12.1003C9.53641 11.3921 8.35411 10.205 7.5937 8.48159L8.19786 7.72142C8.79682 7.10182 8.79682 6.11254 8.19786 5.49294C8.19786 5.49294 7.23432 4.23813 7.2187 4.22251C6.58849 3.5925 5.56766 3.5925 4.93745 4.22251L4.39057 4.69632C3.76557 5.31592 3.43745 6.12816 3.43745 6.99768V7.00289Z" fill="#60635E"/>
</svg>
