<svg width="20" height="20" viewBox="0 0 20 20" fill="none" xmlns="http://www.w3.org/2000/svg">
<path fill-rule="evenodd" clip-rule="evenodd" d="M17.5 9.375C17.5 13.4375 16.9012 14.375 10.3125 14.375C9.98938 14.375 9.68125 14.3725 9.38625 14.3681C9.38562 14.3681 9.385 14.3681 9.385 14.3687L6.59688 16.2275C6.18125 16.5044 5.625 16.2063 5.625 15.7069V14.0112C5.625 14.01 5.62375 14.0087 5.6225 14.0081C3.39938 13.4438 3.125 12.1256 3.125 9.375C3.125 5.3125 3.72375 4.375 10.3125 4.375C16.9012 4.375 17.5 5.3125 17.5 9.375ZM7.1875 10.625C7.705 10.625 8.125 10.205 8.125 9.6875C8.125 9.17 7.705 8.75 7.1875 8.75C6.67 8.75 6.25 9.17 6.25 9.6875C6.25 10.205 6.67 10.625 7.1875 10.625ZM13.4375 10.625C13.955 10.625 14.375 10.205 14.375 9.6875C14.375 9.17 13.955 8.75 13.4375 8.75C12.92 8.75 12.5 9.17 12.5 9.6875C12.5 10.205 12.92 10.625 13.4375 10.625ZM11.25 9.6875C11.25 10.205 10.83 10.625 10.3125 10.625C9.795 10.625 9.375 10.205 9.375 9.6875C9.375 9.17 9.795 8.75 10.3125 8.75C10.83 8.75 11.25 9.17 11.25 9.6875Z" fill="#60635E"/>
</svg>
