<svg width="20" height="20" viewBox="0 0 20 20" fill="none" xmlns="http://www.w3.org/2000/svg">
<path d="M18 2H12.6666V3.3334H13.3334V12H13.332C13.332 12.3686 13.0338 12.666 12.666 12.6666C12.2982 12.666 12 12.3678 12 12V8C12 5.6504 10.2604 3.711 8 3.3868V2H6.6666V3.3868C4.4062 3.711 2.6666 5.6504 2.6666 8V16.6666H2V18H7.3334V16.6666H6.6666V8C6.6666 7.6314 6.9648 7.3334 7.3334 7.3334C7.7018 7.3334 8 7.6314 8 8V12C8 14.3502 9.7388 16.289 12 16.6138V18H13.3334V16.6132C15.5932 16.2884 17.332 14.3502 17.332 12H17.3334V3.3334H18V2ZM5.3334 8V16.6666H4V8C4 6.3874 5.1458 5.043 6.6666 4.7338V6.1224C5.892 6.3984 5.3334 7.1308 5.3334 8ZM9.3334 12V8C9.3334 7.1308 8.7748 6.3984 8 6.1224V4.7338C9.5208 5.043 10.6666 6.3874 10.6666 8V12C10.6666 12.8692 11.2246 13.6022 12 13.8776V15.2662C10.478 14.957 9.3334 13.612 9.3334 12ZM16 12H15.9986C15.9986 13.6126 14.854 14.957 13.3334 15.2662V13.877C14.1074 13.6016 14.6654 12.8692 14.6654 12H14.6666V3.3334H16V12Z" fill="#0B0F0E"/>
</svg>
