<svg width="20" height="20" viewBox="0 0 20 20" fill="none" xmlns="http://www.w3.org/2000/svg">
<path d="M9.99996 0C6.31782 0 3.33337 2.98416 3.33337 6.66659C3.33337 7.56881 3.5156 8.43305 3.84362 9.21852L5.83331 14.0219V18.3333C5.83331 19.253 6.57954 20 7.50002 20H12.4999C13.4204 20 14.1666 19.2548 14.1666 18.3333V14.0236L16.157 9.21852C16.4843 8.43305 16.6665 7.56881 16.6665 6.66659C16.6665 2.98416 13.6831 0 9.99996 0ZM12.4999 18.3333H7.50002V15.8334L12.4999 15.8351V18.3333ZM14.6174 8.58055L12.3029 14.1669C10.5957 14.1669 8.91849 14.1669 7.69704 14.1669L5.38162 8.57655C5.12889 7.97031 5.00013 7.32785 5.00013 6.66659C5.00013 3.90938 7.24309 1.66671 10 1.66671C12.7569 1.66671 14.9999 3.90943 14.9999 6.66659C14.9998 7.32731 14.8711 7.97031 14.6174 8.58055Z" fill="#0B0F0E"/>
<path d="M9.07155 7.08308L10.3215 3.74991H8.54182L6.66687 8.74979H10.9285L9.67856 12.0832H11.4583L13.3332 7.08308H9.07155Z" fill="#0B0F0E"/>
</svg>
