<svg width="20" height="20" viewBox="0 0 20 20" fill="none" xmlns="http://www.w3.org/2000/svg">
<g clip-path="url(#clip0_477_5355)">
<path d="M19.2949 15.7326L11.2169 7.65155L9.32631 3.0861C8.83631 1.90602 7.8956 0.910001 6.6213 0.381092C4.60961 -0.452232 2.36999 0.128748 0.993071 1.65883L6.11508 3.77962C6.11508 3.77962 5.68211 4.82141 5.15626 6.09076L5.15797 6.08904L0.0359604 3.96826C-0.0714238 6.024 1.10198 8.01776 3.11233 8.84956L3.88195 9.16942C3.52871 10.0228 3.27484 10.6366 3.27484 10.6366L9.85846 13.3643L15.7612 19.2675C16.7375 20.2441 18.3195 20.2441 19.2962 19.2675C20.273 18.2912 20.273 16.7092 19.2949 15.7326ZM8.26677 7.29335L7.30985 9.60277C7.13571 10.026 6.64571 10.2286 6.22247 10.0539C5.7977 9.87801 5.59571 9.38801 5.77157 8.96515L6.72677 6.65553C6.90244 6.23152 7.39263 6.02877 7.81549 6.20463C8.23931 6.37953 8.44263 6.86953 8.26677 7.29335ZM18.1196 18.0878C17.7938 18.4134 17.2651 18.4134 16.9393 18.0894L10.8043 11.9517L11.9821 10.7733L18.1164 16.9112C18.3311 17.1244 18.362 17.3716 18.362 17.5002C18.362 17.6285 18.3311 17.8761 18.1196 18.0878Z" fill="#0B0F0E"/>
</g>
<defs>
<clipPath id="clip0_477_5355">
<rect width="20" height="20" fill="white"/>
</clipPath>
</defs>
</svg>
