<svg width="20" height="20" viewBox="0 0 20 20" fill="none" xmlns="http://www.w3.org/2000/svg">
<g clip-path="url(#clip0_477_5319)">
<path d="M14.5832 2.4738V4.14063H20.0001V5.80708H18.3332V7.47392H20.0001V9.14056H14.5832V10.8072H20.0001V12.4738H18.3332V14.1407H20.0001V15.8071H14.5832V17.474H20.0001V19.1406H0V17.474H5.41668V15.8071H0V14.1407H1.66683V12.4738H0V10.8072H5.41668V9.14056H0V7.47392H1.66683V5.80708H0V4.14063H5.41668V2.4738H0V0.807159H20.0001V2.4738H14.5832ZM16.6668 7.47392V5.80708H10.8332V7.47392H16.6668ZM7.08332 9.14056V10.8072H12.9168V9.14056H7.08332ZM16.6668 14.1407V12.4738H10.8332V14.1407H16.6668ZM7.08332 17.474H12.9168V15.8071H7.08332V17.474ZM3.33328 12.4738V14.1407H9.16672V12.4738H3.33328ZM3.33328 5.80708V7.47392H9.16672V5.80708H3.33328ZM12.9168 2.4738H7.08332V4.14063H12.9168V2.4738Z" fill="#0B0F0E"/>
</g>
<defs>
<clipPath id="clip0_477_5319">
<rect width="20" height="20" fill="white" transform="matrix(1 0 0 -1 0 20)"/>
</clipPath>
</defs>
</svg>
