<svg width="20" height="20" viewBox="0 0 20 20" fill="none" xmlns="http://www.w3.org/2000/svg">
<g clip-path="url(#clip0_484_5418)">
<path d="M16.4648 0L13.5187 2.94418C12.7497 3.71418 12.5959 4.85516 13.0377 5.78346L7.66277 11.1588L5.89523 9.39121C5.56946 9.06544 5.0415 9.06544 4.71592 9.39121L0 14.1083C1.15223 16.8848 3.31841 18.9323 5.89352 20.0001L10.6085 15.2849C10.9343 14.9593 10.935 14.4304 10.6085 14.1066L8.84094 12.339L14.217 6.96297C15.1457 7.40433 16.2857 7.24945 17.054 6.48117L20.0001 3.53527L16.4648 0ZM5.55096 17.985C4.0617 17.1551 2.845 15.9393 2.01569 14.4501L5.30491 11.1589L6.48422 12.339L4.68006 14.1424L5.85842 15.3208L7.66277 13.5176L8.84094 14.6957L5.55096 17.985ZM15.8758 5.30281C15.551 5.62668 15.0227 5.62668 14.6973 5.30281C14.3724 4.97723 14.3724 4.44832 14.6973 4.12426L16.4648 2.35691L17.6432 3.53527L15.8758 5.30281Z" fill="#0B0F0E"/>
</g>
<defs>
<clipPath id="clip0_484_5418">
<rect width="20" height="20" fill="white"/>
</clipPath>
</defs>
</svg>
