<svg width="20" height="20" viewBox="0 0 20 20" fill="none" xmlns="http://www.w3.org/2000/svg">
<path d="M14.9999 14.7965V10.0002C14.9999 9.07949 14.2544 8.33325 13.3339 8.33325H11.6664V2.5C11.6664 1.11973 10.5467 0 9.16638 0C7.78611 0 6.66638 1.11973 6.66638 2.5V8.33398H4.99988C4.07937 8.33398 3.33337 9.07949 3.33337 9.99946V20H4.99988V13.3335H6.66663V20H8.33337V13.3335H9.99988V20H11.6666V13.3335H13.3336V14.7965C13.3336 16.7612 14.0984 18.61 15.4884 20L16.6666 18.8217C15.5552 17.71 14.9999 16.2535 14.9999 14.7965ZM9.16638 1.66675C9.62712 1.66675 9.99988 2.04023 9.99988 2.5V8.33374H8.33337V2.5H8.33313C8.33313 2.04023 8.70564 1.66675 9.16638 1.66675ZM13.3349 11.6665H4.99988V9.99976L13.3364 10L13.3349 11.6665Z" fill="#0B0F0E"/>
</svg>
