<svg width="20" height="20" viewBox="0 0 20 20" fill="none" xmlns="http://www.w3.org/2000/svg">
<path d="M15.5243 14.226L12.5 6.66675H10.8333V3.33325H12.5C13.4205 3.33325 14.1667 2.58701 14.1667 1.6665C14.1667 0.745996 13.4205 0 12.5 0H5V1.66675H6.66675C6.66675 2.79551 6.22725 3.85674 5.42798 4.65498L6.60649 5.83325C7.29326 5.14648 7.8085 4.29048 8.09102 3.33325H9.16699V6.6665H7.5L4.47573 14.226C4.30571 14.6515 4.16675 15.3752 4.16675 15.8333V18.3333C4.16675 19.253 4.91201 20 5.83325 20H14.1667C15.088 20 15.8333 19.253 15.8333 18.3333V15.8333C15.8333 15.3752 15.694 14.6515 15.5243 14.226ZM14.167 18.3333H14.1667H5.83325V15.8333C5.83325 15.589 5.93252 15.0725 6.02373 14.8462L8.62798 8.33325H11.3715L13.9772 14.8455C14.0675 15.0715 14.167 15.5893 14.167 15.8333V18.3333Z" fill="#0B0F0E"/>
</svg>
