<svg width="29" height="26" viewBox="0 0 29 26" fill="none" xmlns="http://www.w3.org/2000/svg">
<path d="M25.4374 22.2594C25.4374 23.7194 24.2514 24.9034 22.7884 24.9034C21.3264 24.9034 20.1404 23.7194 20.1414 22.2594C20.1414 20.7994 21.3274 19.6154 22.7894 19.6154C24.2524 19.6154 25.4374 20.7994 25.4374 22.2594Z" stroke="#1D1D1B" stroke-width="1.71" stroke-miterlimit="10"/>
<path d="M14.5422 22.2594C14.5422 23.7194 13.3562 24.9034 11.8932 24.9034C10.4312 24.9034 9.24522 23.7194 9.24622 22.2594C9.24622 20.7994 10.4322 19.6154 11.8942 19.6154C13.3572 19.6154 14.5422 20.7994 14.5422 22.2594Z" stroke="#1D1D1B" stroke-width="1.71" stroke-miterlimit="10"/>
<path d="M1 1H6.009L8.51 13.54C8.647 13.842 9.039 14.596 9.90798 15.146C10.817 15.721 11.708 15.731 12.036 15.719H22.625C22.886 15.743 23.609 15.773 24.36 15.337C25.015 14.958 25.342 14.4269 25.469 14.1899C26.106 11.0549 26.743 7.92 27.38 4.785C27.414 4.656 27.649 3.682 27.005 2.802C26.325 1.872 25.243 1.842 25.125 1.841H12.738" stroke="#1D1D1B" stroke-width="1.71" stroke-linecap="round" stroke-linejoin="round"/>
</svg>
