<svg xmlns="http://www.w3.org/2000/svg" width="25" height="24" viewBox="0 0 25 24" fill="none">
  <path d="M2.33325 2H4.07326C5.15326 2 6.00325 2.93 5.91325 4L5.08325 13.96C4.94325 15.59 6.23325 16.99 7.87325 16.99H18.5233C19.9633 16.99 21.2233 15.81 21.3333 14.38L21.8732 6.88C21.9932 5.22 20.7332 3.87 19.0632 3.87H6.15326" stroke="#004C7F" stroke-width="1.5" stroke-miterlimit="10" stroke-linecap="round" stroke-linejoin="round"/>
  <path d="M16.5833 22C17.2736 22 17.8333 21.4404 17.8333 20.75C17.8333 20.0596 17.2736 19.5 16.5833 19.5C15.8929 19.5 15.3333 20.0596 15.3333 20.75C15.3333 21.4404 15.8929 22 16.5833 22Z" stroke="#004C7F" stroke-width="1.5" stroke-miterlimit="10" stroke-linecap="round" stroke-linejoin="round"/>
  <path d="M8.58325 22C9.27361 22 9.83325 21.4404 9.83325 20.75C9.83325 20.0596 9.27361 19.5 8.58325 19.5C7.8929 19.5 7.33325 20.0596 7.33325 20.75C7.33325 21.4404 7.8929 22 8.58325 22Z" stroke="#004C7F" stroke-width="1.5" stroke-miterlimit="10" stroke-linecap="round" stroke-linejoin="round"/>
  <path d="M9.33325 8H21.3333" stroke="#004C7F" stroke-width="1.5" stroke-miterlimit="10" stroke-linecap="round" stroke-linejoin="round"/>
</svg>