<svg width="24" height="24" viewBox="0 0 24 24" fill="none" xmlns="http://www.w3.org/2000/svg">
<g clip-path="url(#clip0_839_273)">
<path d="M12.8856 3.37127C12.642 2.91033 12.8257 2.34392 13.2929 2.10564C13.7601 1.86736 14.3431 2.04705 14.5866 2.50408L18.3042 9.50017H21.7222C22.429 9.50017 23 10.0588 23 10.7502C23 11.4416 22.429 12.0002 21.7222 12.0002L19.6498 20.1056C19.3663 21.2189 18.3441 22.0002 17.1701 22.0002H5.82986C4.6559 22.0002 3.63368 21.2189 3.35017 20.1056L1.27778 12.0002C0.571007 12.0002 0 11.4416 0 10.7502C0 10.0588 0.571007 9.50017 1.27778 9.50017H4.69583L8.41337 2.50408C8.65695 2.04705 9.23594 1.86736 9.70712 2.10564C10.1783 2.34392 10.358 2.91033 10.1144 3.37127L6.85608 9.50017H16.1439L12.8856 3.37127ZM15.3333 13.8752V17.6252C15.3333 17.9689 15.6208 18.2502 15.9722 18.2502C16.3236 18.2502 16.6111 17.9689 16.6111 17.6252V13.8752C16.6111 13.5314 16.3236 13.2502 15.9722 13.2502C15.6208 13.2502 15.3333 13.5314 15.3333 13.8752ZM11.5 13.2502C11.1486 13.2502 10.8611 13.5314 10.8611 13.8752V17.6252C10.8611 17.9689 11.1486 18.2502 11.5 18.2502C11.8514 18.2502 12.1389 17.9689 12.1389 17.6252V13.8752C12.1389 13.5314 11.8514 13.2502 11.5 13.2502ZM6.38889 13.8752V17.6252C6.38889 17.9689 6.67639 18.2502 7.02778 18.2502C7.37917 18.2502 7.66667 17.9689 7.66667 17.6252V13.8752C7.66667 13.5314 7.37917 13.2502 7.02778 13.2502C6.67639 13.2502 6.38889 13.5314 6.38889 13.8752Z" fill="#8A6FB2"/>
</g>
<defs>
<clipPath id="clip0_839_273">
<rect width="23" height="20" fill="white" transform="matrix(-1 0 0 1 23 2)"/>
</clipPath>
</defs>
</svg>
