<svg width="24" height="25" viewBox="0 0 24 25" fill="none" xmlns="http://www.w3.org/2000/svg">
<path d="M2 2.50006H3.74001C4.82001 2.50006 5.67 3.43006 5.58 4.50006L4.75 14.4601C4.61 16.0901 5.89999 17.4901 7.53999 17.4901H18.19C19.63 17.4901 20.89 16.3101 21 14.8801L21.54 7.38007C21.66 5.72007 20.4 4.37006 18.73 4.37006H5.82001" stroke="white" stroke-width="1.5" stroke-miterlimit="10" stroke-linecap="round" stroke-linejoin="round"/>
<path d="M16.25 22.5001C16.9404 22.5001 17.5 21.9404 17.5 21.2501C17.5 20.5597 16.9404 20.0001 16.25 20.0001C15.5596 20.0001 15 20.5597 15 21.2501C15 21.9404 15.5596 22.5001 16.25 22.5001Z" stroke="white" stroke-width="1.5" stroke-miterlimit="10" stroke-linecap="round" stroke-linejoin="round"/>
<path d="M8.25 22.5001C8.94036 22.5001 9.5 21.9404 9.5 21.2501C9.5 20.5597 8.94036 20.0001 8.25 20.0001C7.55964 20.0001 7 20.5597 7 21.2501C7 21.9404 7.55964 22.5001 8.25 22.5001Z" stroke="white" stroke-width="1.5" stroke-miterlimit="10" stroke-linecap="round" stroke-linejoin="round"/>
<path d="M9 8.50006H21" stroke="white" stroke-width="1.5" stroke-miterlimit="10" stroke-linecap="round" stroke-linejoin="round"/>
</svg>
