<svg width="24" height="24" viewBox="0 0 24 24" fill="none" xmlns="http://www.w3.org/2000/svg">
<path d="M19.2761 22H4.7239C3.77247 22 3 21.285 3 20.4024V3.59756C3 2.71501 3.77247 2 4.7239 2H19.2761C20.2284 2 21 2.71501 21 3.59756V20.4024C21 21.285 20.2284 22 19.2761 22Z" stroke="#1D1D1B" stroke-width="1.602" stroke-miterlimit="10"/>
<path d="M17.2737 8.27148H6.55574C6.31194 8.27148 6.11472 8.08786 6.11472 7.86193V5.22358C6.11472 4.99765 6.31194 4.81488 6.55574 4.81488H17.2737C17.5175 4.81488 17.7156 4.99765 17.7156 5.22358V7.86193C17.7156 8.08786 17.5175 8.27148 17.2737 8.27148Z" stroke="#1D1D1B" stroke-width="1.602" stroke-miterlimit="10"/>
<path d="M8.51147 11.1582V13.8753" stroke="#1D1D1B" stroke-width="1.602" stroke-linecap="round" stroke-linejoin="round"/>
<path d="M7.0435 12.5168H9.97907" stroke="#1D1D1B" stroke-width="1.602" stroke-linecap="round" stroke-linejoin="round"/>
<path d="M10.0649 16.1093C9.02855 17.0579 7.99402 18.0056 6.95767 18.9541" stroke="#1D1D1B" stroke-width="1.602" stroke-linecap="round" stroke-linejoin="round"/>
<path d="M13.9218 12.5172H16.8537" stroke="#1D1D1B" stroke-width="1.602" stroke-linecap="round" stroke-linejoin="round"/>
<path d="M13.9218 16.2458H16.8537" stroke="#1D1D1B" stroke-width="1.602" stroke-linecap="round" stroke-linejoin="round"/>
<path d="M13.9218 18.6331H16.8537" stroke="#1D1D1B" stroke-width="1.602" stroke-linecap="round" stroke-linejoin="round"/>
<path d="M7.01922 15.9898C8.04187 16.9502 9.06544 17.9089 10.089 18.8693" stroke="#1D1D1B" stroke-width="1.602" stroke-linecap="round" stroke-linejoin="round"/>
</svg>
