<svg width="24" height="24" viewBox="0 0 24 24" fill="none" xmlns="http://www.w3.org/2000/svg">
<path d="M16.21 4C16.8721 4 17.4932 4.12305 18.0732 4.36914C18.6533 4.61523 19.1572 4.95508 19.585 5.38867C20.0127 5.82227 20.3525 6.3291 20.6045 6.90918C20.8564 7.48926 20.9824 8.11035 20.9824 8.77246C20.9824 9.1123 20.9473 9.44922 20.877 9.7832C20.8066 10.1172 20.7012 10.4395 20.5605 10.75H16.4912L14.8037 8.99219L11.9912 11.8047L8.05371 7.86719L5.24121 10.75H3.42188C3.28125 10.4395 3.17578 10.1172 3.10547 9.7832C3.03516 9.44922 3 9.1123 3 8.77246C3 8.11035 3.12305 7.48926 3.36914 6.90918C3.61523 6.3291 3.95508 5.8252 4.38867 5.39746C4.82227 4.96973 5.3291 4.62988 5.90918 4.37793C6.48926 4.12598 7.11035 4 7.77246 4C8.41113 4 9.02051 4.12012 9.60059 4.36035C10.1807 4.60059 10.6992 4.94629 11.1562 5.39746L11.9912 6.24121L12.8262 5.39746C13.2773 4.94629 13.793 4.60059 14.373 4.36035C14.9531 4.12012 15.5654 4 16.21 4ZM15.3662 11.875H19.8486L19.7256 12.0156C19.6846 12.0625 19.6406 12.1123 19.5938 12.165L11.9912 19.7588L4.38867 12.165C4.3418 12.1182 4.29785 12.0713 4.25684 12.0244C4.21582 11.9775 4.1748 11.9277 4.13379 11.875H6.36621L8.05371 10.2578L11.9912 14.1953L14.8037 11.3828L15.3662 11.875Z" fill="#F47B20"/>
</svg>
