<svg width="24" height="24" viewBox="0 0 24 24" fill="none" xmlns="http://www.w3.org/2000/svg">
<path d="M8.75022 13.1166L11.1086 10.7583L5.25856 4.91663C4.63426 5.54272 4.28369 6.39081 4.28369 7.27496C4.28369 8.15912 4.63426 9.0072 5.25856 9.6333L8.75022 13.1166ZM18.7919 10.4583C20.3836 8.86663 20.6919 6.5833 19.4669 5.3583C18.2502 4.14163 15.9669 4.44163 14.3669 6.0333C13.0419 7.3583 12.6252 9.14996 13.2169 10.425L5.08356 18.5583L6.25856 19.7333L12.0002 14.0083L17.7336 19.7416L18.9086 18.5666L13.1752 12.8333L14.4002 11.6083C15.6752 12.2 17.4669 11.7833 18.7919 10.4583Z" fill="#F47B20"/>
</svg>
