<svg width="24" height="24" viewBox="0 0 24 24" fill="none" xmlns="http://www.w3.org/2000/svg">
<g clip-path="url(#clip0_847_853)">
<path d="M12.3964 5.39634C13.8866 5.39634 15.0946 4.18833 15.0946 2.69817C15.0946 1.20801 13.8866 0 12.3964 0C10.9063 0 9.69824 1.20801 9.69824 2.69817C9.69824 4.18833 10.9063 5.39634 12.3964 5.39634Z" fill="#F47B20"/>
<path d="M16.2509 6.74548H8.54181C8.1329 6.74548 7.74073 6.89946 7.45159 7.17355C7.16244 7.44764 7 7.81938 7 8.20699V15.5145H9.31272V9.6685H9.69817V24.2836H12.2036V15.8799H12.5891V24.2836H15.0945V9.6685H15.48V15.5145H17.7927V8.20699C17.7927 7.81938 17.6302 7.44764 17.3411 7.17355C17.052 6.89946 16.6598 6.74548 16.2509 6.74548Z" fill="#F47B20"/>
</g>
<defs>
<clipPath id="clip0_847_853">
<rect width="24" height="24" fill="white"/>
</clipPath>
</defs>
</svg>
