<svg width="24" height="24" viewBox="0 0 24 24" fill="none" xmlns="http://www.w3.org/2000/svg">
<path d="M16.7575 14.1512C16.4702 13.0156 15.8493 12.0142 14.9899 11.3006C14.1305 10.587 13.0802 10.2005 12 10.2005C10.9198 10.2005 9.86945 10.587 9.01007 11.3006C8.15069 12.0142 7.52974 13.0156 7.2425 14.1512L6.55797 16.8572C6.43507 17.343 6.41673 17.8533 6.50439 18.3481C6.59205 18.843 6.78334 19.3091 7.06334 19.7101C7.34335 20.111 7.7045 20.4361 8.11863 20.6598C8.53277 20.8836 8.9887 21 9.45088 21H14.5491C15.0113 21 15.4672 20.8836 15.8813 20.6598C16.2955 20.4361 16.6566 20.111 16.9366 19.7101C17.2166 19.3091 17.4079 18.843 17.4956 18.3481C17.5833 17.8533 17.5649 17.343 17.442 16.8572L16.7575 14.1512ZM15.9817 18.9168C15.8144 19.1583 15.5978 19.354 15.3492 19.4884C15.1005 19.6227 14.8266 19.6921 14.5491 19.691H9.45088C9.17357 19.691 8.9 19.6211 8.65152 19.4869C8.40303 19.3526 8.18634 19.1576 8.01833 18.917C7.85033 18.6764 7.73555 18.3968 7.68296 18.0998C7.63036 17.8029 9.37713 20.2247 9.45088 19.9332L9.77638 20.4272C9.99376 19.5679 16.5201 17.7453 17.1704 17.2052C17.8208 16.6652 6.15506 17.2052 6.97252 17.2052C7.78997 17.2052 7.36797 19.17 8.01833 19.7101C8.66869 20.2501 14.6678 19.5679 14.8852 20.4272L16.7575 19.4869C16.8323 19.7783 16.3712 17.8031 16.3186 18.1002C16.266 18.3973 16.1506 18.677 15.9817 18.917V18.9168ZM7.87739 11.1132C7.98182 10.4014 7.84333 9.63939 7.48726 8.96704C7.1312 8.29469 6.59522 7.7829 5.97788 7.52563C5.31676 7.25029 4.64244 7.29414 4.07848 7.64905C2.95735 8.35495 2.66232 10.0947 3.42093 11.5273C3.77688 12.1996 4.3129 12.7115 4.93024 12.9687C5.20371 13.0849 5.49439 13.1455 5.78788 13.1475C6.15353 13.1489 6.51299 13.0446 6.82963 12.8452C7.39326 12.4902 7.76538 11.8751 7.87739 11.1132ZM7.3894 10.4665C7.33575 10.8318 6.45245 8.81298 6.20776 8.96704C5.96307 9.1211 6.10486 9.75368 5.78788 9.62176C5.42728 9.47159 4.67891 11.2855 4.46036 10.8727C4.04022 10.0791 4.21425 12.0507 4.75285 11.7115C4.88824 11.6278 5.0205 12.3055 5.17617 12.3073C5.3222 12.309 6.07187 11.2423 6.20776 11.3006C6.56836 11.4508 4.24181 11.2987 4.46036 11.7115C4.67891 12.1243 7.44566 11.4074 7.3894 10.4665ZM8.00741 8.40129C8.43362 8.77285 8.92034 8.96634 9.41254 8.9663C9.55997 8.96625 9.70698 8.94896 9.85102 8.91472C11.1161 8.61483 11.8831 7.05577 11.5608 5.43933C11.4097 4.68066 11.0421 4.01506 10.5259 3.56504C9.9732 3.08316 9.31846 2.90075 8.68233 3.05162C7.41734 3.35147 6.65033 4.91052 6.97252 6.52697C7.12373 7.28567 7.49128 7.95127 8.00741 8.40129ZM10.8213 7.94977C10.8213 7.23453 10.5259 3.71683 9.11477 4.31033C9.33789 4.31033 9.56739 4.40552 9.77638 4.58772C10.0779 4.85055 10.295 5.25181 10.3878 5.71762C10.5664 6.61328 10.2038 7.49168 9.59605 7.63576C9.31993 7.70121 9.02193 7.61007 8.75702 7.37906C8.45553 7.11619 8.23837 6.71494 8.14557 6.24917C7.96697 5.35326 6.74929 7.94977 10.8213 7.94977ZM19.9215 7.64905C19.3578 7.29414 18.6831 7.25029 18.0221 7.52563C17.4048 7.78282 16.8687 8.29469 16.5128 8.96704C16.1568 9.63939 16.0183 10.4015 16.1227 11.1132C16.2345 11.8751 16.6066 12.4902 17.1704 12.8452C17.4871 13.0446 17.8465 13.1489 18.2122 13.1475C18.5057 13.1455 18.7964 13.0849 19.0698 12.9687C19.6872 12.7115 20.2232 12.1996 20.5791 11.5273C21.3377 10.0947 21.0426 8.35495 19.9215 7.64905ZM19.5396 10.8727C19.3211 11.2855 19.0021 11.5956 18.6415 11.7458C18.3247 11.8778 18.0154 11.8657 17.7707 11.7115C17.526 11.5574 17.3618 11.2715 17.3081 10.9062C17.2471 10.4906 17.3338 10.0343 17.5524 9.62176C17.771 9.20917 18.0898 8.89893 18.4505 8.74868C18.5863 8.69032 18.7309 8.65952 18.8769 8.65782C16.5128 8.96704 17.035 11.662 17.1704 11.7458C17.709 12.0847 19.2053 12.6336 19.5396 10.8727ZM14.149 8.91472C14.293 8.94896 14.44 8.96625 14.5874 8.9663C15.0796 8.9663 15.5665 8.77285 15.9926 8.40129C16.5087 7.95131 16.8763 7.28567 17.0275 6.52701C17.3497 4.91056 16.5826 3.35151 15.3177 3.05166C14.6816 2.90088 14.0268 3.08316 13.474 3.56509C12.9579 4.01506 12.5903 4.68071 12.4391 5.43933C12.1169 7.05577 12.8839 8.61483 14.149 8.91472ZM13.6122 5.71742C12.7907 8.78292 15.553 7.7883 15.8545 7.52563C16.0635 7.34343 16.5128 3.87468 14.8852 4.31013C14.9449 4.31001 15.0044 4.31687 15.0627 4.33058C15.6704 4.47466 16.033 5.35326 15.8545 6.24872C15.7616 6.71453 15.5445 7.11595 15.243 7.37866C14.9782 7.60962 14.6804 7.70076 14.404 7.63535C13.7962 7.49148 13.4336 6.61296 13.6122 5.71742Z" fill="#F47B20"/>
</svg>
