<svg width="24" height="24" viewBox="0 0 24 24" fill="none" xmlns="http://www.w3.org/2000/svg">
<path d="M12.3036 5.04281C13.6962 5.04281 14.825 3.91394 14.825 2.52141C14.825 1.12887 13.6962 0 12.3036 0C10.9111 0 9.78223 1.12887 9.78223 2.52141C9.78223 3.91394 10.9111 5.04281 12.3036 5.04281Z" fill="#F47B20"/>
<path d="M14.6706 9.21779H14.6728L15.006 9.11208L16.6062 14.747L18.607 14.1127L17.902 11.6234C17.902 11.6179 17.902 11.6124 17.8989 11.6069L17.1664 9.02751L16.9616 8.30407L16.9224 8.16618H16.9202L16.8111 7.7778C16.6914 7.35182 16.4446 6.97811 16.1076 6.7124C15.7705 6.44669 15.3612 6.30321 14.9407 6.30334H9.66676C9.24624 6.30321 8.83694 6.44669 8.49988 6.7124C8.16283 6.97811 7.91607 7.35182 7.79641 7.7778L7.68723 8.16618H7.68462L7.64547 8.30407L7.4406 9.02751L6.70812 11.6069C6.70812 11.6124 6.70812 11.6179 6.70508 11.6234L6 14.1127L8.00084 14.747L9.59977 9.11208L9.92774 9.21595L7.62286 17.3347H9.86293V23.9532H12.1247V17.3347H12.4727V23.9532H14.7345V17.3347H16.975L14.6706 9.21779Z" fill="#F47B20"/>
</svg>
