<svg width="24" height="24" viewBox="0 0 24 24" fill="none" xmlns="http://www.w3.org/2000/svg">
<path fill-rule="evenodd" clip-rule="evenodd" d="M19.5938 12.5625H18.4688V13.6875H19.5938V12.5625Z" fill="#F47B20"/>
<path fill-rule="evenodd" clip-rule="evenodd" d="M19.5994 15.9274V14.3743C19.9881 14.304 20.3395 14.0988 20.5918 13.7949C20.8441 13.4909 20.9811 13.1077 20.9786 12.7127C20.9774 12.492 20.9319 12.2737 20.845 12.0709C20.758 11.868 20.6313 11.6846 20.4724 11.5314L14.5886 5.73375C14.2726 5.42324 13.8471 5.24948 13.404 5.25L13.4012 5.25281C12.9599 5.25213 12.5358 5.42437 12.2199 5.73263L11.5073 6.43125C11.3851 6.24171 11.2175 6.08578 11.0196 5.9777C10.8217 5.86962 10.5999 5.81282 10.3744 5.8125H9.14251C8.78267 5.81339 8.43787 5.95697 8.18373 6.21173C7.9296 6.4665 7.78689 6.81166 7.78689 7.1715V10.0965L6.31145 11.55C6.09091 11.7675 5.93503 12.042 5.86111 12.3428C5.78719 12.6437 5.79814 12.9591 5.89273 13.2541C5.98733 13.5491 6.16187 13.812 6.39696 14.0138C6.63204 14.2155 6.91846 14.3481 7.22439 14.3968V18.75H6.66189V14.8221C6.15944 14.6228 5.74616 14.2483 5.4985 13.7679C5.25084 13.2874 5.18554 12.7335 5.3147 12.2087C5.41356 11.8068 5.6219 11.4401 5.91657 11.1495L7.22439 9.86138V8.625C6.20401 8.64356 5.38107 9.49238 5.38107 10.5347H5.33551C4.3967 10.5347 3.62945 11.3087 3.62945 12.2694V12.6249C3.62945 12.9799 3.73857 13.3118 3.91632 13.5913C3.63622 13.7572 3.40432 13.9933 3.24359 14.2764C3.08287 14.5595 2.9989 14.8796 3.00001 15.2051C3.00001 16.23 3.81845 17.0625 4.82589 17.0625H5.81251V18.75C5.19376 18.75 4.68751 19.2563 4.68751 19.875H20.4375C20.4378 19.7138 20.4032 19.5545 20.3363 19.4079C20.2693 19.2613 20.1714 19.1309 20.0494 19.0256C20.1611 18.8542 20.2498 18.6689 20.3132 18.4744C20.4542 18.0569 20.4748 17.6082 20.3728 17.1796C20.2707 16.7509 20.0501 16.3597 19.7361 16.0506L19.7321 16.0472C19.6894 16.0057 19.6451 15.9657 19.5994 15.9274ZM10.5994 7.1715V8.34825L8.91189 10.0127V7.1715C8.91166 7.14099 8.91745 7.11074 8.92892 7.08247C8.94039 7.0542 8.95732 7.02846 8.97873 7.00674C9.00015 6.98501 9.02564 6.96771 9.05374 6.95583C9.08184 6.94395 9.112 6.93772 9.14251 6.9375H10.3744C10.4047 6.93748 10.4347 6.94358 10.4626 6.95545C10.4905 6.96731 10.5157 6.9847 10.5368 7.00655C10.5578 7.02841 10.5742 7.05429 10.5849 7.08263C10.5957 7.11098 10.6006 7.14121 10.5994 7.1715ZM8.34939 18.75V12.6863L13.4018 7.70531L18.4688 12.6947V13.6875H18.4744V15.4059C18.1926 15.3596 17.9048 15.3651 17.625 15.4223V13.5278C17.6247 13.421 17.5822 13.3188 17.5067 13.2433C17.4313 13.1678 17.329 13.1253 17.2223 13.125H15.2153C15.1085 13.1253 15.0063 13.1678 14.9308 13.2433C14.8553 13.3188 14.8128 13.421 14.8125 13.5278V15.5348C14.8131 15.6414 14.8557 15.7435 14.9311 15.8189C15.0065 15.8943 15.1086 15.9369 15.2153 15.9375H16.5748C16.3332 16.1435 16.1349 16.3955 15.9915 16.6789C15.6895 16.7817 15.4217 16.9659 15.2175 17.2111C15.0134 17.4564 14.8808 17.7531 14.8344 18.0688C14.8254 18.1082 14.8204 18.1487 14.8198 18.1892C14.8142 18.2343 14.8117 18.2798 14.8125 18.3253V18.3309C14.8125 18.4761 14.8305 18.6161 14.8637 18.75H14.25C14.25 18.4412 14.0464 18.1875 13.7983 18.1875H13.6864V13.7561C13.6864 13.4068 13.4293 13.125 13.1104 13.125H10.8885C10.5696 13.125 10.3125 13.4068 10.3125 13.7561V18.1875H10.2017C9.9542 18.1875 9.75001 18.4412 9.75001 18.75H8.34939ZM15.4538 18.75C15.5432 18.9801 15.7046 19.1736 15.9094 19.3069H18.93V19.3125L18.9401 19.3069C19.2106 19.1613 19.4379 18.9471 19.5994 18.6859C19.6747 18.5638 19.7351 18.4331 19.7794 18.2966C19.8877 17.9789 19.904 17.6371 19.8264 17.3105C19.7488 16.984 19.5804 16.686 19.3406 16.4511C19.0087 16.1215 18.5597 15.9368 18.0919 15.9375C17.3888 15.9375 16.7756 16.3549 16.4831 16.9534C16.4542 17.0143 16.4126 17.0684 16.3612 17.1121C16.3098 17.1559 16.2498 17.1882 16.185 17.2071C15.7575 17.3426 15.4425 17.7268 15.3863 18.1836C15.3806 18.1948 15.3806 18.2061 15.3863 18.2173C15.375 18.2511 15.375 18.2904 15.375 18.3304C15.375 18.4789 15.4031 18.6201 15.4538 18.75ZM12.8438 16.5C12.9184 16.5 12.9899 16.4704 13.0426 16.4176C13.0954 16.3649 13.125 16.2933 13.125 16.2188C13.125 16.1442 13.0954 16.0726 13.0426 16.0199C12.9899 15.9671 12.9184 15.9375 12.8438 15.9375C12.7692 15.9375 12.6976 15.9671 12.6449 16.0199C12.5921 16.0726 12.5625 16.1442 12.5625 16.2188C12.5625 16.2933 12.5921 16.3649 12.6449 16.4176C12.6976 16.4704 12.7692 16.5 12.8438 16.5Z" fill="#F47B20"/>
</svg>
