<svg width="24" height="24" viewBox="0 0 24 24" fill="none" xmlns="http://www.w3.org/2000/svg">
<path d="M14.2222 11.7778C14.5333 11.7778 14.7964 11.6702 15.0116 11.4551C15.2267 11.24 15.3339 10.9772 15.3333 10.6667C15.3333 10.3556 15.2258 10.0924 15.0107 9.87733C14.7956 9.66222 14.5327 9.55496 14.2222 9.55555C13.9111 9.55555 13.648 9.66311 13.4329 9.87822C13.2178 10.0933 13.1105 10.3561 13.1111 10.6667C13.1111 10.9778 13.2187 11.2409 13.4338 11.456C13.6489 11.6711 13.9117 11.7784 14.2222 11.7778ZM9.77778 11.7778C10.0889 11.7778 10.352 11.6702 10.5671 11.4551C10.7822 11.24 10.8895 10.9772 10.8889 10.6667C10.8889 10.3556 10.7813 10.0924 10.5662 9.87733C10.3511 9.66222 10.0883 9.55496 9.77778 9.55555C9.46667 9.55555 9.20356 9.66311 8.98844 9.87822C8.77333 10.0933 8.66607 10.3561 8.66667 10.6667C8.66667 10.9778 8.77422 11.2409 8.98933 11.456C9.20444 11.6711 9.46726 11.7784 9.77778 11.7778ZM12 16.4444C12.8889 16.4444 13.6927 16.2 14.4116 15.7111C15.1304 15.2222 15.6599 14.5778 16 13.7778H8C8.34074 14.5778 8.87052 15.2222 9.58933 15.7111C10.3081 16.2 11.1117 16.4444 12 16.4444ZM12 20C10.8889 20 9.848 19.7887 8.87733 19.3662C7.90667 18.9437 7.06222 18.3736 6.344 17.656C5.62578 16.9372 5.0557 16.0927 4.63378 15.1227C4.21185 14.1526 4.00059 13.1117 4 12C4 10.8889 4.21126 9.848 4.63378 8.87733C5.0563 7.90667 5.62637 7.06222 6.344 6.344C7.06281 5.62578 7.90726 5.0557 8.87733 4.63378C9.84741 4.21185 10.8883 4.00059 12 4C13.1111 4 14.152 4.21126 15.1227 4.63378C16.0933 5.0563 16.9378 5.62637 17.656 6.344C18.3742 7.06281 18.9446 7.90726 19.3671 8.87733C19.7896 9.84741 20.0006 10.8883 20 12C20 13.1111 19.7887 14.152 19.3662 15.1227C18.9437 16.0933 18.3736 16.9378 17.656 17.656C16.9372 18.3742 16.0927 18.9446 15.1227 19.3671C14.1526 19.7896 13.1117 20.0006 12 20ZM12.3556 8.88889C12.6074 8.88889 12.8927 8.84059 13.2116 8.744C13.5304 8.64741 13.6895 8.42904 13.6889 8.08889C13.6889 7.91111 13.6296 7.75555 13.5111 7.62222C13.3926 7.48889 13.2444 7.42222 13.0667 7.42222C12.9481 7.42222 12.8335 7.44444 12.7227 7.48889C12.6119 7.53333 12.4895 7.55556 12.3556 7.55556C12.0444 7.55556 11.7816 7.4483 11.5671 7.23378C11.3526 7.01926 11.245 6.75615 11.2444 6.44444C11.2444 6.28148 11.2705 6.1443 11.3227 6.03289C11.3748 5.92148 11.4524 5.84385 11.5556 5.8C11.2741 5.82963 11 5.86667 10.7333 5.91111C10.4667 5.95556 10.2074 6.02963 9.95555 6.13333C9.94074 6.17778 9.92948 6.22963 9.92178 6.28889C9.91407 6.34815 9.91052 6.4 9.91111 6.44444C9.91111 7.11111 10.152 7.68533 10.6338 8.16711C11.1156 8.64889 11.6895 8.88948 12.3556 8.88889Z" fill="#F47B20"/>
</svg>
