<svg width="24" height="24" viewBox="0 0 24 24" fill="none" xmlns="http://www.w3.org/2000/svg">
<path d="M18.8399 19.5601C19.6352 19.5601 20.2799 18.9153 20.2799 18.1201C20.2799 17.3248 19.6352 16.6801 18.8399 16.6801C18.0446 16.6801 17.3999 17.3248 17.3999 18.1201C17.3999 18.9153 18.0446 19.5601 18.8399 19.5601Z" fill="#F47B20"/>
<path d="M8.39996 19.5601C9.19525 19.5601 9.83996 18.9153 9.83996 18.1201C9.83996 17.3248 9.19525 16.6801 8.39996 16.6801C7.60467 16.6801 6.95996 17.3248 6.95996 18.1201C6.95996 18.9153 7.60467 19.5601 8.39996 19.5601Z" fill="#F47B20"/>
<path d="M19.92 14.88H8.67756L8.91768 14.4905C9.02064 14.3235 9.05088 14.1215 9.00156 13.9314L8.7672 13.0293L19.2011 12.4871C19.5967 12.467 19.92 12.126 19.92 11.73V6.96003C19.92 6.56403 19.596 6.24003 19.2 6.24003H7.00284L6.86208 5.69895C6.82198 5.54463 6.73179 5.40799 6.60565 5.31045C6.47951 5.21292 6.32457 5.16001 6.16512 5.16003H3.72C3.52904 5.16003 3.34591 5.23589 3.21088 5.37092C3.07586 5.50594 3 5.68908 3 5.88003C3 6.07099 3.07586 6.25412 3.21088 6.38915C3.34591 6.52418 3.52904 6.60003 3.72 6.60003H5.60856L7.53096 13.9962L6.77496 15.222C6.70772 15.3311 6.67082 15.4561 6.6681 15.5842C6.66538 15.7123 6.69693 15.8389 6.75948 15.9507C6.82178 16.0626 6.91286 16.1559 7.02331 16.2208C7.13376 16.2858 7.25956 16.32 7.38768 16.32H19.92C20.111 16.32 20.2941 16.2442 20.4291 16.1092C20.5641 15.9741 20.64 15.791 20.64 15.6C20.64 15.4091 20.5641 15.2259 20.4291 15.0909C20.2941 14.9559 20.111 14.88 19.92 14.88Z" fill="#F47B20"/>
</svg>
