<svg width="24" height="24" viewBox="0 0 24 24" fill="none" xmlns="http://www.w3.org/2000/svg">
<path d="M4.99242 11.6193C5.12191 11.2175 5.12191 11.2384 5.19883 11.044C5.70139 9.46419 6.17062 7.87132 6.736 6.31497C6.93471 5.76966 7.43471 4.99214 7.84881 4.59164C8.52829 3.93545 9.31803 3.39666 10.0591 2.80439C10.5578 2.4065 11.0231 2.41563 11.477 2.88918C13.3988 4.8943 15.3308 6.89159 17.2462 8.90192C17.7385 9.41853 17.7436 9.90513 17.2885 10.4661C16.6885 11.2058 16.109 11.969 15.4398 12.6382C14.9962 13.0831 14.477 13.4431 13.9052 13.6923C12.5629 14.2754 11.177 14.7555 9.81931 15.3034C8.78727 15.7196 7.91548 15.5552 7.15523 14.7085C6.66549 14.1645 6.08985 13.6975 5.6296 13.1313C5.37062 12.8117 5.20652 12.4125 5.02191 12.0303C4.96037 11.9037 4.95011 11.7563 4.99242 11.6193ZM13.2872 9.2372C13.2924 7.98742 12.3026 6.97899 11.0501 6.95943C9.87828 6.94116 8.85778 7.96916 8.83086 9.19414C8.80521 10.4348 9.81803 11.4915 11.0411 11.5006C12.2757 11.5111 13.2821 10.4961 13.2872 9.2372Z" fill="#F47B20"/>
<path d="M5.56146 14.2229C5.94095 14.6417 6.22556 14.9548 6.50505 15.2639C6.1871 15.7205 5.85377 16.1171 5.61146 16.5659C5.18454 17.3591 5.44352 17.9096 6.323 17.8535C7.48068 17.7791 8.62939 17.5091 9.77554 17.2873C10.6935 17.1099 11.5935 16.7733 12.5165 16.7094C13.1627 16.6637 13.8806 16.849 14.4806 17.1243C15.405 17.5482 15.8306 18.5188 15.4524 19.4672C15.1332 20.2683 14.6306 21.0327 14.0614 21.6785C13.5294 22.2812 12.8063 22.7117 12.1601 23.2087C11.805 23.4814 11.4742 23.4423 11.2371 23.047C11.0012 22.6556 10.973 22.319 11.4089 21.9838C12.1717 21.398 12.9191 20.7822 13.6088 20.1104C13.9845 19.7451 14.355 19.2376 14.0896 18.6584C13.8229 18.0779 13.2012 18.0609 12.6832 18.1027C11.9883 18.1588 11.3012 18.3349 10.6178 18.494C9.53836 18.7445 8.47042 19.0472 7.38709 19.2781C6.99863 19.3603 6.57428 19.3394 6.17428 19.2937C4.23199 19.0733 3.45379 17.5691 4.40506 15.8275C4.70762 15.2718 5.1448 14.793 5.56146 14.2229Z" fill="#F47B20"/>
<path d="M12.311 2.69168C13.1444 1.87372 13.9572 1.04793 14.802 0.257364C15.2251 -0.137919 15.7443 -0.0622543 16.1687 0.377384C16.5674 0.790931 16.6315 1.29841 16.2379 1.71456C15.4431 2.55601 14.6046 3.3557 13.7892 4.16845C13.329 3.70794 12.8649 3.24482 12.311 2.69168Z" fill="#F47B20"/>
<path d="M17.4901 7.94403C17.0325 7.47569 16.5837 7.01779 16.0786 6.50118C16.9004 5.66235 17.7068 4.77524 18.585 3.97163C19.0171 3.57635 19.5145 3.78117 19.8876 4.19341C20.2837 4.63044 20.2953 5.10921 19.8927 5.53059C19.1222 6.33942 18.3183 7.11694 17.4901 7.94403Z" fill="#F47B20"/>
<path d="M10.8146 10.5968C9.99668 10.418 9.5595 9.87794 9.57873 9.17739C9.59796 8.45988 10.0672 7.94588 10.8339 7.86108C10.2428 8.7508 10.2492 9.6392 10.8146 10.5968Z" fill="#F47B20"/>
</svg>
