<svg width="24" height="24" viewBox="0 0 24 24" fill="none" xmlns="http://www.w3.org/2000/svg">
<path d="M5.19395 15.1166L6.1127 14.1541L8.3002 14.4749L11.7127 10.8999L4.8877 7.0041L6.1127 5.72077L14.4689 7.9666L17.8814 4.43743C18.1294 4.17771 18.4356 4.04785 18.8002 4.04785C19.1648 4.04785 19.471 4.17771 19.7189 4.43743C19.9669 4.69716 20.0908 5.01799 20.0908 5.39994C20.0908 5.78188 19.9669 6.10271 19.7189 6.36243L16.3502 9.93743L18.4939 18.6916L17.2689 19.9749L13.5502 12.8249L10.1377 16.3999L10.4439 18.6916L9.5252 19.6541L7.99395 16.7208L5.19395 15.1166Z" fill="#F47B20"/>
</svg>
