<svg xmlns="http://www.w3.org/2000/svg" width="40" height="42" viewBox="0 0 40 42" fill="none">
  <path d="M34.7669 5.04503C31.8038 2.00764 27.923 0.484375 23.1199 0.484375C20.5951 0.484375 18.2758 0.982983 16.1665 1.9802C14.0572 2.97741 12.3177 4.34973 10.9571 6.09714V1.06532H0.766602V14.4179H11.7287C12.135 13.3933 12.692 12.5058 13.3906 11.7556C15.0205 10.0311 17.2394 9.1574 20.0564 9.1574C22.8734 9.1574 25.001 10.0265 26.6081 11.7556C28.2106 13.4802 29.005 15.9504 29.005 19.157V41.4754H39.2001V17.771C39.2001 12.3229 37.7163 8.08699 34.7623 5.04503H34.7669Z" fill="#F4EED9"/>
  <path d="M9.80151 22.1805C9.80151 24.5591 7.87937 26.485 5.50524 26.485C3.13112 26.485 1.20898 24.5591 1.20898 22.1805C1.20898 19.8018 3.13112 17.876 5.50524 17.876C7.87937 17.876 9.80151 19.8018 9.80151 22.1805Z" fill="#937986"/>
  <path d="M10.9525 41.4757V29.9346H0.766602V41.4757" fill="#E59385"/>
</svg>