<svg width="24" height="24" viewBox="0 0 24 24" fill="none" xmlns="http://www.w3.org/2000/svg">
<path d="M21.9322 3.76699C21.6881 3.39547 20.3091 1.29558 17.8723 1.02763C15.8482 0.805287 13.8249 1.93789 12.4996 3.95607C11.1751 1.93789 9.1518 0.805287 7.1277 1.02763C4.69089 1.29558 3.31185 3.39547 3.06775 3.76699C1.75247 5.76712 1.71724 9.45287 2.60724 12.464C3.58615 15.7763 5.52469 17.7061 6.44657 18.6003C8.74497 20.8294 11.1348 21.6646 12.404 22C13.6857 21.694 16.1737 20.893 18.5534 18.6003C19.4485 17.7384 21.4071 15.7982 22.3928 12.464C23.2828 9.45287 23.2475 5.76712 21.9322 3.76699Z" stroke="#1D1D1B" stroke-width="1.719" stroke-linecap="round" stroke-linejoin="round"/>
</svg>
