<svg width="24" height="24" viewBox="0 0 24 24" fill="none" xmlns="http://www.w3.org/2000/svg">
<path d="M9.831 20.48H13.351V11.666H15.806L16.068 8.71499H13.35C13.35 8.71499 13.35 7.61299 13.35 7.033C13.35 6.338 13.49 6.063 14.163 6.063H16.068V3H13.63C11.011 3 9.83 4.154 9.831 6.362C9.831 8.28499 9.831 8.71499 9.831 8.71499H8V11.703H9.831V20.48Z" fill="#222221"/>
<path d="M9.831 20.48H13.351V11.666H15.806L16.068 8.71499H13.35C13.35 8.71499 13.35 7.61299 13.35 7.033C13.35 6.338 13.49 6.063 14.163 6.063H16.068V3H13.63C11.011 3 9.83 4.154 9.831 6.362C9.831 8.28499 9.831 8.71499 9.831 8.71499H8V11.703H9.831V20.48Z" stroke="#ECECEC" stroke-width="0.25" stroke-miterlimit="10"/>
</svg>
