<svg xmlns="http://www.w3.org/2000/svg" width="21" height="20" viewBox="0 0 21 20" fill="none">
  <path d="M16.3335 18.9583C15.9918 18.9583 15.7085 18.675 15.7085 18.3333V9.16667C15.7085 8.825 15.9918 8.54167 16.3335 8.54167C16.6752 8.54167 16.9585 8.825 16.9585 9.16667V18.3333C16.9585 18.675 16.6752 18.9583 16.3335 18.9583Z" fill="#3D444C"/>
  <path d="M16.3335 6.45833C15.9918 6.45833 15.7085 6.175 15.7085 5.83333V1.66667C15.7085 1.325 15.9918 1.04167 16.3335 1.04167C16.6752 1.04167 16.9585 1.325 16.9585 1.66667V5.83333C16.9585 6.175 16.6752 6.45833 16.3335 6.45833Z" fill="#3D444C"/>
  <path d="M10.5 18.9583C10.1583 18.9583 9.875 18.675 9.875 18.3333V14.1667C9.875 13.825 10.1583 13.5417 10.5 13.5417C10.8417 13.5417 11.125 13.825 11.125 14.1667V18.3333C11.125 18.675 10.8417 18.9583 10.5 18.9583Z" fill="#3D444C"/>
  <path d="M10.5 11.4583C10.1583 11.4583 9.875 11.175 9.875 10.8333V1.66667C9.875 1.325 10.1583 1.04167 10.5 1.04167C10.8417 1.04167 11.125 1.325 11.125 1.66667V10.8333C11.125 11.175 10.8417 11.4583 10.5 11.4583Z" fill="#3D444C"/>
  <path d="M4.6665 18.9583C4.32484 18.9583 4.0415 18.675 4.0415 18.3333V9.16667C4.0415 8.825 4.32484 8.54167 4.6665 8.54167C5.00817 8.54167 5.2915 8.825 5.2915 9.16667V18.3333C5.2915 18.675 5.00817 18.9583 4.6665 18.9583Z" fill="#8A6FB2"/>
  <path d="M4.6665 6.45833C4.32484 6.45833 4.0415 6.175 4.0415 5.83333V1.66667C4.0415 1.325 4.32484 1.04167 4.6665 1.04167C5.00817 1.04167 5.2915 1.325 5.2915 1.66667V5.83333C5.2915 6.175 5.00817 6.45833 4.6665 6.45833Z" fill="#8A6FB2"/>
  <path d="M6.33333 9.79167H3C2.65833 9.79167 2.375 9.50833 2.375 9.16667C2.375 8.825 2.65833 8.54167 3 8.54167H6.33333C6.675 8.54167 6.95833 8.825 6.95833 9.16667C6.95833 9.50833 6.675 9.79167 6.33333 9.79167Z" fill="#8A6FB2"/>
  <path d="M17.9998 9.79167H14.6665C14.3248 9.79167 14.0415 9.50833 14.0415 9.16667C14.0415 8.825 14.3248 8.54167 14.6665 8.54167H17.9998C18.3415 8.54167 18.6248 8.825 18.6248 9.16667C18.6248 9.50833 18.3415 9.79167 17.9998 9.79167Z" fill="#8A6FB2"/>
  <path d="M12.1668 11.4583H8.8335C8.49183 11.4583 8.2085 11.175 8.2085 10.8333C8.2085 10.4917 8.49183 10.2083 8.8335 10.2083H12.1668C12.5085 10.2083 12.7918 10.4917 12.7918 10.8333C12.7918 11.175 12.5085 11.4583 12.1668 11.4583Z" fill="#8A6FB2"/>
</svg>