<svg width="1920" height="392" viewBox="0 0 1920 392" fill="none" xmlns="http://www.w3.org/2000/svg">
<path d="M259.504 123.768C234.934 98.5822 202.754 85.9512 162.927 85.9512C141.991 85.9512 122.759 90.0857 105.269 98.3546C87.7779 106.624 73.3538 118.003 62.072 132.493V90.7684H-22.4282V201.489H68.47C71.8395 192.993 76.4582 185.634 82.2505 179.413C95.766 165.113 114.165 157.868 137.524 157.868C160.883 157.868 178.525 165.075 191.851 179.413C205.139 193.713 211.727 214.196 211.727 240.786V425.851H296.265V229.293C296.265 184.117 283.961 148.993 259.466 123.768H259.504Z" fill="#332F38"/>
<path d="M52.4939 265.858C52.4939 285.582 36.5554 301.551 16.869 301.551C-2.81743 301.551 -18.7559 285.582 -18.7559 265.858C-18.7559 246.134 -2.81743 230.165 16.869 230.165C36.5554 230.165 52.4939 246.134 52.4939 265.858Z" fill="#332F38"/>
<path d="M62.0341 425.851V330.151H-22.4282V425.851" fill="#332F38"/>
<path d="M648.084 160.448C634.228 135.262 614.693 115.765 589.555 102.11C564.341 88.379 535.871 81.4756 504.108 81.4756C472.345 81.4756 441.944 88.5687 416.617 102.641C391.214 116.789 371.528 136.931 357.406 163.141C343.323 189.389 336.281 219.81 336.281 254.441C336.281 289.072 343.437 318.962 357.747 345.172C372.02 371.382 391.895 391.676 417.526 405.976C443.08 420.276 471.89 427.445 504.108 427.445C513.081 427.445 521.75 426.876 530.155 425.813V352.872C521.826 355.831 512.513 357.234 502.291 357.234C480.598 357.234 462.274 350.445 447.434 336.676C432.518 322.982 424.075 303.979 422.031 279.817H666.521C668.149 270.145 668.982 259.258 668.982 247.196C668.982 214.5 662.054 185.558 648.122 160.372L648.084 160.448ZM422.637 223.072C425.854 200.503 434.6 182.827 448.872 170.12C463.145 157.414 480.787 151.041 501.723 151.041C523.832 151.041 542.534 157.641 557.867 170.727C573.124 183.851 580.961 201.224 581.377 223.034H422.637V223.072Z" fill="#332F38"/>
<path d="M629.912 361.71C629.912 381.434 613.973 397.403 594.287 397.403C574.6 397.403 558.662 381.434 558.662 361.71C558.662 341.986 574.6 326.017 594.287 326.017C613.973 326.017 629.912 341.986 629.912 361.71Z" fill="#332F38"/>
<path d="M867.587 354.2C854.715 354.2 845.554 351.658 840.064 346.614C834.688 341.569 831.962 333.376 831.962 322.072V185.482H831.622V56.9721H831.962V7.58594H746.856V90.4652H707.029V160.031H746.856V321.541C746.856 390.879 782.481 425.548 853.655 425.548H906.771V354.238H867.587V354.2Z" fill="#332F38"/>
<path d="M925.246 121.227C925.246 140.913 909.307 156.92 889.621 156.92C869.935 156.92 853.996 140.951 853.996 121.227C853.996 101.503 869.935 85.5342 889.621 85.5342C909.307 85.5342 925.246 101.503 925.246 121.227Z" fill="#332F38"/>
<path d="M1219.26 84.4338V132.189C1207.97 116.827 1193.02 104.12 1174.24 94.1062C1155.54 84.0165 1133.73 78.9717 1108.75 78.9717C1080.2 78.9717 1054.34 86.0648 1031.17 100.137C1008 114.248 989.757 134.427 976.241 160.599C962.802 186.81 956.025 216.851 956.025 250.723C956.025 284.596 962.802 315.396 976.241 341.796C989.757 368.158 1008 388.641 1031.17 403.168C1054.34 417.696 1079.97 424.903 1108.18 424.903C1133.09 424.903 1155.16 419.782 1174.24 409.541C1182.34 405.179 1189.73 400.361 1196.28 394.937V320.668C1196.28 320.668 1195.97 321.01 1195.86 321.161C1195.14 321.92 1194.46 322.717 1193.81 323.323C1188.21 329.43 1181.78 334.551 1174.58 338.685C1160.88 346.537 1146.15 350.52 1130.48 350.52C1114.8 350.52 1100.8 346.461 1087.28 338.382C1073.84 330.303 1062.94 318.734 1054.72 303.599C1046.47 288.503 1042.34 270.827 1042.34 250.648C1042.34 230.468 1046.47 213.058 1054.72 198.341C1062.9 183.699 1073.69 172.472 1086.98 164.81C1100.27 157.185 1114.77 153.317 1130.44 153.317C1146.11 153.317 1160.8 157.261 1174.54 165.113C1176.51 166.251 1178.44 167.503 1180.3 168.83C1180.3 168.83 1180.37 168.906 1180.53 168.982C1181.93 169.817 1189.35 174.672 1197.45 184.837C1197.6 184.989 1197.71 185.103 1197.79 185.254C1198.62 186.241 1199.42 187.303 1200.17 188.403C1202.75 191.703 1205.06 195.192 1207.1 198.985C1209.34 203.12 1211.3 207.482 1212.89 212.034C1213.46 213.589 1213.95 215.182 1214.45 216.813C1214.67 217.42 1214.86 218.141 1215.01 218.861C1217.82 228.875 1219.22 239.913 1219.22 251.975C1219.22 267.261 1216.98 280.917 1212.52 292.979H1304.36V84.4338H1219.26Z" fill="#332F38"/>
<path d="M1214.48 216.775C1213.99 215.144 1213.5 213.551 1212.93 211.996C1213.01 212.224 1213.16 212.489 1213.2 212.679C1213.69 213.931 1214.11 215.334 1214.45 216.737L1214.48 216.775Z" fill="#332F38"/>
<path d="M1296.16 358.239C1296.68 338.534 1281.16 322.138 1261.49 321.618C1241.82 321.099 1225.46 336.652 1224.94 356.358C1224.42 376.064 1239.94 392.46 1259.61 392.98C1279.28 393.499 1295.64 377.945 1296.16 358.239Z" fill="#332F38"/>
<path d="M1634.91 122.327C1610.33 97.1408 1578.16 84.5098 1538.33 84.5098C1517.39 84.5098 1498.16 88.6442 1480.67 96.9132C1463.18 105.182 1448.75 116.561 1437.47 131.051V89.327H1353.01V200.048H1443.91C1447.28 191.551 1451.9 184.193 1457.69 177.972C1471.2 163.672 1489.6 156.427 1512.96 156.427C1536.32 156.427 1553.96 163.634 1567.29 177.972C1580.58 192.272 1587.17 212.755 1587.17 239.344V424.41H1671.7V227.851C1671.7 182.675 1659.4 147.551 1634.91 122.327Z" fill="#332F38"/>
<path d="M1427.89 264.455C1427.89 284.179 1411.95 300.148 1392.27 300.148C1372.58 300.148 1356.64 284.179 1356.64 264.455C1356.64 244.731 1372.58 228.762 1392.27 228.762C1411.95 228.762 1427.89 244.731 1427.89 264.455Z" fill="#332F38"/>
<path d="M1437.47 424.448V328.71H1352.97V424.448" fill="#332F38"/>
<path d="M1883.41 355.035C1870.54 355.035 1861.37 352.493 1855.88 347.448C1850.51 342.404 1847.78 334.21 1847.78 322.907V186.317H1847.44V57.769H1847.78V8.38281H1762.68V91.2621H1722.85V160.828H1762.68V322.338C1762.68 391.676 1798.3 426.345 1869.48 426.345H1922.59V355.035H1883.41Z" fill="#332F38"/>
<path d="M1941.07 122.024C1941.07 141.71 1925.13 157.717 1905.44 157.717C1885.75 157.717 1869.82 141.748 1869.82 122.024C1869.82 102.3 1885.75 86.3311 1905.44 86.3311C1925.13 86.3311 1941.07 102.3 1941.07 122.024Z" fill="#332F38"/>
</svg>
