<svg width="24" height="24" viewBox="0 0 24 24" fill="none" xmlns="http://www.w3.org/2000/svg">
<path d="M11.924 3C9.5 3 9.196 3.01 8.244 3.054C7.295 3.097 6.646 3.24799 6.078 3.469C5.491 3.697 4.994 4.00199 4.497 4.49799C4.001 4.99399 3.696 5.492 3.468 6.079C3.248 6.646 3.097 7.295 3.054 8.24502C3.01 9.19702 3 9.50002 3 11.924C3 14.348 3.01 14.652 3.054 15.604C3.097 16.554 3.248 17.203 3.468 17.77C3.696 18.357 4.001 18.855 4.497 19.351C4.994 19.847 5.491 20.152 6.078 20.38C6.646 20.601 7.295 20.752 8.244 20.795C9.196 20.838 9.5 20.849 11.924 20.849C14.348 20.849 14.652 20.838 15.603 20.795C16.554 20.752 17.202 20.601 17.77 20.38C18.357 20.152 18.854 19.847 19.351 19.351C19.847 18.855 20.152 18.357 20.38 17.77C20.6 17.203 20.751 16.554 20.795 15.604C20.838 14.652 20.848 14.348 20.848 11.924C20.848 9.50002 20.838 9.19702 20.795 8.24502C20.751 7.295 20.6 6.646 20.38 6.079C20.152 5.492 19.847 4.99399 19.351 4.49799C18.854 4.00199 18.357 3.697 17.77 3.469C17.202 3.24799 16.554 3.097 15.603 3.054C14.652 3.01 14.348 3 11.924 3ZM11.924 4.608C14.307 4.608 14.589 4.617 15.53 4.66C16.4 4.7 16.873 4.84499 17.187 4.967C17.604 5.12899 17.901 5.323 18.213 5.635C18.526 5.947 18.719 6.245 18.881 6.661C19.003 6.976 19.148 7.448 19.188 8.31802C19.231 9.25902 19.241 9.54202 19.241 11.924C19.241 14.308 19.231 14.589 19.188 15.531C19.148 16.401 19.003 16.873 18.881 17.188C18.719 17.604 18.526 17.901 18.213 18.214C17.901 18.526 17.604 18.719 17.187 18.881C16.873 19.004 16.4 19.149 15.53 19.189C14.589 19.231 14.307 19.241 11.924 19.241C9.541 19.241 9.259 19.231 8.318 19.189C7.448 19.149 6.975 19.004 6.661 18.881C6.244 18.719 5.947 18.526 5.635 18.214C5.322 17.901 5.129 17.604 4.967 17.188C4.845 16.873 4.7 16.401 4.66 15.531C4.617 14.589 4.608 14.308 4.608 11.924C4.608 9.54202 4.617 9.25902 4.66 8.31802C4.7 7.448 4.845 6.976 4.967 6.661C5.129 6.245 5.322 5.947 5.635 5.635C5.947 5.323 6.244 5.12899 6.661 4.967C6.975 4.84499 7.448 4.7 8.318 4.66C9.259 4.617 9.541 4.608 11.924 4.608Z" fill="#222221"/>
<path d="M11.9241 14.8994C10.2811 14.8994 8.94911 13.5674 8.94911 11.9244C8.94911 10.2814 10.2811 8.94942 11.9241 8.94942C13.5671 8.94942 14.8991 10.2814 14.8991 11.9244C14.8991 13.5674 13.5671 14.8994 11.9241 14.8994ZM11.9241 7.34144C9.39311 7.34144 7.34111 9.39342 7.34111 11.9244C7.34111 14.4554 9.39311 16.5074 11.9241 16.5074C14.4551 16.5074 16.5071 14.4554 16.5071 11.9244C16.5071 9.39342 14.4551 7.34144 11.9241 7.34144Z" fill="#222221"/>
<path d="M17.759 7.16081C17.759 7.75182 17.28 8.23182 16.688 8.23182C16.097 8.23182 15.617 7.75182 15.617 7.16081C15.617 6.56981 16.097 6.08981 16.688 6.08981C17.28 6.08981 17.759 6.56981 17.759 7.16081Z" fill="#222221"/>
</svg>
