<svg xmlns="http://www.w3.org/2000/svg" width="32" height="32" viewBox="0 0 32 32" fill="none">
  <path fill-rule="evenodd" clip-rule="evenodd" d="M16.0001 2.6665C12.3787 2.6665 11.9254 2.68162 10.5032 2.7465C9.08364 2.81139 8.11386 3.03717 7.26586 3.36695C6.37697 3.70117 5.57075 4.22561 4.90408 4.90473C4.22606 5.57062 3.70129 6.37628 3.3663 7.26561C3.0383 8.11362 2.81164 9.08428 2.74675 10.5038C2.68275 11.9252 2.66675 12.3776 2.66675 15.9998C2.66675 19.6221 2.68186 20.0745 2.74675 21.4967C2.81164 22.9163 3.03741 23.8861 3.36719 24.7341C3.70141 25.6229 4.22586 26.4292 4.90497 27.0958C5.57089 27.7738 6.37653 28.2986 7.26586 28.6336C8.11386 28.9625 9.08364 29.1883 10.5032 29.2532C11.9254 29.3181 12.3787 29.3332 16.0001 29.3332C19.6214 29.3332 20.0747 29.3181 21.497 29.2532C22.9165 29.1883 23.8863 28.9625 24.7343 28.6327C25.6232 28.2985 26.4294 27.7741 27.0961 27.095C27.7741 26.4291 28.2989 25.6234 28.6339 24.7341C28.9627 23.8861 29.1885 22.9163 29.2534 21.4967C29.3183 20.0745 29.3334 19.6212 29.3334 15.9998C29.3334 12.3785 29.3183 11.9252 29.2534 10.5029C29.1885 9.08339 28.9627 8.11362 28.633 7.26561C28.2982 6.37589 27.7734 5.5699 27.0952 4.90384C26.4293 4.22581 25.6236 3.70104 24.7343 3.36606C23.8863 3.03806 22.9156 2.81139 21.4961 2.7465C20.0747 2.6825 19.6223 2.6665 16.0001 2.6665ZM16.0001 5.06917C19.5601 5.06917 19.9823 5.0825 21.3885 5.1465C22.6881 5.20606 23.3939 5.42206 23.8641 5.60606C24.4863 5.84695 24.9307 6.13673 25.3974 6.6025C25.8641 7.06917 26.153 7.51362 26.3939 8.13584C26.577 8.60606 26.7939 9.31184 26.8534 10.6114C26.9174 12.0176 26.9308 12.4398 26.9308 15.9998C26.9308 19.5598 26.9174 19.9821 26.8534 21.3883C26.7939 22.6878 26.5779 23.3936 26.3939 23.8638C26.1805 24.443 25.84 24.9669 25.3974 25.3972C24.9673 25.8398 24.4433 26.1803 23.8641 26.3936C23.3939 26.5767 22.6881 26.7936 21.3885 26.8532C19.9823 26.9172 19.561 26.9305 16.0001 26.9305C12.4392 26.9305 12.0179 26.9172 10.6116 26.8532C9.31208 26.7936 8.6063 26.5776 8.13608 26.3936C7.55693 26.1802 7.03298 25.8397 6.60275 25.3972C6.16024 24.9669 5.81975 24.443 5.6063 23.8638C5.42319 23.3936 5.2063 22.6878 5.14675 21.3883C5.08275 19.9821 5.06941 19.5598 5.06941 15.9998C5.06941 12.4398 5.08275 12.0176 5.14675 10.6114C5.2063 9.31184 5.4223 8.60606 5.6063 8.13584C5.84719 7.51362 6.13697 7.06917 6.60275 6.6025C7.03292 6.15988 7.55689 5.81937 8.13608 5.60606C8.6063 5.42295 9.31208 5.20606 10.6116 5.1465C12.0179 5.0825 12.4401 5.06917 16.0001 5.06917Z" fill="#161A1F"/>
  <path fill-rule="evenodd" clip-rule="evenodd" d="M16.0001 20.4487C15.4159 20.4487 14.8373 20.3337 14.2976 20.1101C13.7578 19.8865 13.2674 19.5588 12.8543 19.1457C12.4411 18.7326 12.1134 18.2421 11.8899 17.7024C11.6663 17.1626 11.5512 16.5841 11.5512 15.9998C11.5512 15.4156 11.6663 14.8371 11.8899 14.2973C12.1134 13.7576 12.4411 13.2671 12.8543 12.854C13.2674 12.4409 13.7578 12.1132 14.2976 11.8896C14.8373 11.666 15.4159 11.5509 16.0001 11.5509C17.18 11.5509 18.3116 12.0197 19.1459 12.854C19.9803 13.6883 20.449 14.8199 20.449 15.9998C20.449 17.1798 19.9803 18.3113 19.1459 19.1457C18.3116 19.98 17.18 20.4487 16.0001 20.4487ZM16.0001 9.1465C14.1825 9.1465 12.4393 9.86855 11.1541 11.1538C9.86881 12.439 9.14677 14.1822 9.14677 15.9998C9.14677 17.8175 9.86881 19.5606 11.1541 20.8459C12.4393 22.1311 14.1825 22.8532 16.0001 22.8532C17.8177 22.8532 19.5609 22.1311 20.8461 20.8459C22.1314 19.5606 22.8534 17.8175 22.8534 15.9998C22.8534 14.1822 22.1314 12.439 20.8461 11.1538C19.5609 9.86855 17.8177 9.1465 16.0001 9.1465ZM24.8472 9.02206C24.8472 9.45171 24.6765 9.86376 24.3727 10.1676C24.0689 10.4714 23.6569 10.6421 23.2272 10.6421C22.7976 10.6421 22.3855 10.4714 22.0817 10.1676C21.7779 9.86376 21.6072 9.45171 21.6072 9.02206C21.6072 8.59241 21.7779 8.18036 22.0817 7.87655C22.3855 7.57274 22.7976 7.40206 23.2272 7.40206C23.6569 7.40206 24.0689 7.57274 24.3727 7.87655C24.6765 8.18036 24.8472 8.59241 24.8472 9.02206Z" fill="#161A1F"/>
</svg>