<svg width="24" height="25" viewBox="0 0 24 25" fill="none" xmlns="http://www.w3.org/2000/svg">
<path d="M12 22.3309C10.6333 22.3309 9.34167 22.0683 8.125 21.5429C6.90833 21.0176 5.846 20.3009 4.938 19.3929C4.03 18.4849 3.31333 17.4226 2.788 16.2059C2.26267 14.9893 2 13.6976 2 12.3309C2 10.9476 2.26267 9.65193 2.788 8.44393C3.31333 7.23593 4.03 6.1776 4.938 5.26893C5.846 4.36027 6.90833 3.6436 8.125 3.11893C9.34167 2.59427 10.6333 2.3316 12 2.33093C13.3833 2.33093 14.6793 2.5936 15.888 3.11893C17.0967 3.64427 18.1547 4.36093 19.062 5.26893C19.9693 6.17693 20.686 7.23527 21.212 8.44393C21.738 9.6526 22.0007 10.9483 22 12.3309C22 13.6976 21.7373 14.9893 21.212 16.2059C20.6867 17.4226 19.97 18.4853 19.062 19.3939C18.154 20.3026 17.0957 21.0193 15.887 21.5439C14.6783 22.0686 13.3827 22.3309 12 22.3309ZM12 20.2809C12.4333 19.6809 12.8083 19.0559 13.125 18.4059C13.4417 17.7559 13.7 17.0643 13.9 16.3309H10.1C10.3 17.0643 10.5583 17.7559 10.875 18.4059C11.1917 19.0559 11.5667 19.6809 12 20.2809ZM9.4 19.8809C9.1 19.3309 8.83767 18.7599 8.613 18.1679C8.38833 17.5759 8.20067 16.9636 8.05 16.3309H5.1C5.58333 17.1643 6.18767 17.8893 6.913 18.5059C7.63833 19.1226 8.46733 19.5809 9.4 19.8809ZM14.6 19.8809C15.5333 19.5809 16.3627 19.1226 17.088 18.5059C17.8133 17.8893 18.4173 17.1643 18.9 16.3309H15.95C15.8 16.9643 15.6127 17.5769 15.388 18.1689C15.1633 18.7609 14.9007 19.3316 14.6 19.8809ZM4.25 14.3309H7.65C7.6 13.9976 7.56267 13.6686 7.538 13.3439C7.51333 13.0193 7.50067 12.6816 7.5 12.3309C7.49933 11.9803 7.512 11.6429 7.538 11.3189C7.564 10.9949 7.60133 10.6656 7.65 10.3309H4.25C4.16667 10.6643 4.10433 10.9936 4.063 11.3189C4.02167 11.6443 4.00067 11.9816 4 12.3309C3.99933 12.6803 4.02033 13.0179 4.063 13.3439C4.10567 13.6699 4.168 13.9989 4.25 14.3309ZM9.65 14.3309H14.35C14.4 13.9976 14.4377 13.6686 14.463 13.3439C14.4883 13.0193 14.5007 12.6816 14.5 12.3309C14.4993 11.9803 14.4867 11.6429 14.462 11.3189C14.4373 10.9949 14.4 10.6656 14.35 10.3309H9.65C9.6 10.6643 9.56267 10.9936 9.538 11.3189C9.51333 11.6443 9.50067 11.9816 9.5 12.3309C9.49933 12.6803 9.512 13.0179 9.538 13.3439C9.564 13.6699 9.60133 13.9989 9.65 14.3309ZM16.35 14.3309H19.75C19.8333 13.9976 19.896 13.6686 19.938 13.3439C19.98 13.0193 20.0007 12.6816 20 12.3309C19.9993 11.9803 19.9787 11.6429 19.938 11.3189C19.8973 10.9949 19.8347 10.6656 19.75 10.3309H16.35C16.4 10.6643 16.4377 10.9936 16.463 11.3189C16.4883 11.6443 16.5007 11.9816 16.5 12.3309C16.4993 12.6803 16.4867 13.0179 16.462 13.3439C16.4373 13.6699 16.4 13.9989 16.35 14.3309ZM15.95 8.33093H18.9C18.4167 7.4976 17.8127 6.7726 17.088 6.15593C16.3633 5.53927 15.534 5.08093 14.6 4.78093C14.9 5.33093 15.1627 5.90193 15.388 6.49393C15.6133 7.08593 15.8007 7.69827 15.95 8.33093ZM10.1 8.33093H13.9C13.7 7.5976 13.4417 6.90593 13.125 6.25593C12.8083 5.60593 12.4333 4.98093 12 4.38093C11.5667 4.98093 11.1917 5.60593 10.875 6.25593C10.5583 6.90593 10.3 7.5976 10.1 8.33093ZM5.1 8.33093H8.05C8.2 7.6976 8.38767 7.08493 8.613 6.49293C8.83833 5.90093 9.10067 5.33027 9.4 4.78093C8.46667 5.08093 7.63733 5.53927 6.912 6.15593C6.18667 6.7726 5.58267 7.4976 5.1 8.33093Z" fill="#8A70B2"/>
</svg>
