<svg xmlns="http://www.w3.org/2000/svg" width="47" height="45" viewBox="0 0 47 45" fill="none">
  <path d="M43.0198 32.8457L41.6039 31.4333V31.4333L43.0198 32.8457ZM10.65 2.5V4.5H35.85V2.5V0.5H10.65V2.5ZM44.25 10.9211H42.25V25.6579H44.25H46.25V10.9211H44.25ZM35.85 34.0789V32.0789H14.85V34.0789V36.0789H35.85V34.0789ZM44.25 25.6579H42.25C42.25 27.6992 42.2458 29.0294 42.114 30.0121C41.9898 30.9379 41.7863 31.2504 41.6039 31.4333L43.0198 32.8457L44.4358 34.2582C45.4836 33.2078 45.8951 31.9113 46.0785 30.5438C46.2542 29.2334 46.25 27.5864 46.25 25.6579H44.25ZM35.85 34.0789V36.0789C37.7732 36.0789 39.4173 36.0832 40.7257 35.9069C42.0921 35.7227 43.3874 35.3092 44.4358 34.2582L43.0198 32.8457L41.6039 31.4333C41.4221 31.6155 41.1124 31.8186 40.1914 31.9427C39.2123 32.0747 37.8866 32.0789 35.85 32.0789V34.0789ZM35.85 2.5V4.5C37.8866 4.5 39.2123 4.50427 40.1914 4.63623C41.1124 4.76037 41.4221 4.96348 41.6039 5.14568L43.0198 3.73323L44.4358 2.32079C43.3874 1.26975 42.0921 0.856247 40.7257 0.672077C39.4173 0.495732 37.7732 0.5 35.85 0.5V2.5ZM44.25 10.9211H46.25C46.25 8.99259 46.2542 7.34555 46.0785 6.03512C45.8951 4.66767 45.4836 3.37114 44.4358 2.32079L43.0198 3.73323L41.6039 5.14568C41.7863 5.32856 41.9898 5.64108 42.114 6.5668C42.2458 7.54954 42.25 8.87979 42.25 10.9211H44.25ZM10.65 2.5V0.5C7.22112 0.5 4.45 3.28527 4.45 6.71053H6.45H8.45C8.45 5.48496 9.43969 4.5 10.65 4.5V2.5ZM10.65 15.1316H8.65C8.65 16.3571 7.66031 17.3421 6.45 17.3421V19.3421V21.3421C9.87888 21.3421 12.65 18.5568 12.65 15.1316H10.65ZM6.45 19.3421V17.3421C5.23969 17.3421 4.25 16.3571 4.25 15.1316H2.25H0.25C0.25 18.5568 3.02112 21.3421 6.45 21.3421V19.3421ZM2.25 15.1316H4.25C4.25 13.906 5.23969 12.9211 6.45 12.9211V10.9211V8.92105C3.02112 8.92105 0.25 11.7063 0.25 15.1316H2.25ZM6.45 10.9211V12.9211C7.66031 12.9211 8.65 13.906 8.65 15.1316H10.65H12.65C12.65 11.7063 9.87888 8.92105 6.45 8.92105V10.9211ZM2.25 40.3947H4.25V27.7632H2.25H0.25V40.3947H2.25ZM4.35 25.6579V27.6579H8.55V25.6579V23.6579H4.35V25.6579ZM10.65 27.7632H8.65V40.3947H10.65H12.65V27.7632H10.65ZM4.35 42.5V44.5H8.55V42.5V40.5H4.35V42.5ZM8.55 25.6579V27.6579C8.60051 27.6579 8.65 27.7003 8.65 27.7632H10.65H12.65C12.65 25.5006 10.8191 23.6579 8.55 23.6579V25.6579ZM10.65 40.3947H8.65C8.65 40.4576 8.60051 40.5 8.55 40.5V42.5V44.5C10.8191 44.5 12.65 42.6573 12.65 40.3947H10.65ZM2.25 27.7632H4.25C4.25 27.7003 4.29949 27.6579 4.35 27.6579V25.6579V23.6579C2.08092 23.6579 0.25 25.5006 0.25 27.7632H2.25ZM2.25 40.3947H0.25C0.25 42.6573 2.08092 44.5 4.35 44.5V42.5V40.5C4.29949 40.5 4.25 40.4576 4.25 40.3947H2.25ZM6.45 25.6579V27.6579H23.25V25.6579V23.6579H6.45V25.6579Z" fill="#0E0E0E"/>
</svg>