<svg xmlns="http://www.w3.org/2000/svg" width="43" height="42" viewBox="0 0 43 42" fill="none">
  <path d="M21.2022 19.9819L22.3363 18.3345L21.2022 17.5538L20.0681 18.3345L21.2022 19.9819ZM20.3236 20.4355L19.6396 18.5561V18.5561L20.3236 20.4355ZM12.0224 14.3354L13.9017 13.6513L12.0224 14.3354ZM14.4604 4.32645L15.1445 6.20583L14.4604 4.32645ZM27.9439 4.32647L28.628 2.44708L27.9439 4.32647ZM30.382 14.3354L28.5026 13.6513V13.6513L30.382 14.3354ZM22.0807 20.4355L21.3967 22.3149L22.0807 20.4355ZM18.3004 4.78158L19.2615 3.02764L18.3004 4.78158ZM24.104 4.78158L23.1429 3.02764L24.104 4.78158ZM33.5833 40V38H0.25V40V42H33.5833V40ZM40.25 33.3333H38.25C38.25 35.9107 36.1607 38 33.5833 38V40V42C38.3698 42 42.25 38.1198 42.25 33.3333H40.25ZM40.25 33.3333H42.25C42.25 28.5469 38.3698 24.6667 33.5833 24.6667V26.6667V28.6667C36.1607 28.6667 38.25 30.756 38.25 33.3333H40.25ZM2.05432 26.6667V28.6667H3.10714V26.6667V24.6667H2.05432V26.6667ZM3.10714 40V38H2.05432V40V42H3.10714V40ZM9.77381 33.3333H7.77381C7.77381 35.9107 5.68447 38 3.10714 38V40V42C7.89361 42 11.7738 38.1198 11.7738 33.3333H9.77381ZM9.77381 33.3333H11.7738C11.7738 28.5469 7.89361 24.6667 3.10714 24.6667V26.6667V28.6667C5.68447 28.6667 7.77381 30.756 7.77381 33.3333H9.77381ZM21.2022 19.9819L20.0681 18.3345C19.9334 18.4272 19.791 18.501 19.6396 18.5561L20.3236 20.4355L21.0077 22.3148C21.4847 22.1412 21.9287 21.9099 22.3363 21.6293L21.2022 19.9819ZM20.3236 20.4355L19.6396 18.5561C18.9807 18.7959 18.0083 18.6961 16.8524 17.8467C15.71 17.0072 14.5951 15.5562 13.9017 13.6513L12.0224 14.3354L10.143 15.0194C11.0687 17.5629 12.6217 19.7017 14.4838 21.07C16.3323 22.4284 18.701 23.1544 21.0077 22.3148L20.3236 20.4355ZM12.0224 14.3354L13.9017 13.6513C13.2084 11.7464 13.1298 9.91827 13.4653 8.54087C13.8048 7.14715 14.4856 6.44565 15.1445 6.20583L14.4604 4.32645L13.7764 2.44706C11.4697 3.28663 10.1219 5.3654 9.57897 7.59419C9.03208 9.8393 9.21723 12.4759 10.143 15.0194L12.0224 14.3354ZM14.4604 4.32645L15.1445 6.20583C15.6938 6.00591 16.4349 6.03992 17.3393 6.53551L18.3004 4.78158L19.2615 3.02764C17.616 2.12594 15.6652 1.75959 13.7764 2.44706L14.4604 4.32645ZM27.9439 4.32647L28.628 2.44708C26.7392 1.75961 24.7884 2.12595 23.1429 3.02764L24.104 4.78158L25.0651 6.53552C25.9695 6.03993 26.7106 6.00593 27.2599 6.20585L27.9439 4.32647ZM30.382 14.3354L32.2614 15.0194C33.1871 12.4759 33.3723 9.83932 32.8254 7.59421C32.2825 5.36542 30.9347 3.28664 28.628 2.44708L27.9439 4.32647L27.2599 6.20585C27.9188 6.44567 28.5996 7.14716 28.939 8.54088C29.2746 9.91828 29.196 11.7464 28.5026 13.6513L30.382 14.3354ZM22.0807 20.4355L21.3967 22.3149C23.7034 23.1544 26.0721 22.4284 27.9206 21.07C29.7827 19.7017 31.3356 17.5629 32.2614 15.0194L30.382 14.3354L28.5026 13.6513C27.8093 15.5562 26.6944 17.0072 25.552 17.8467C24.3961 18.6961 23.4237 18.7959 22.7648 18.5561L22.0807 20.4355ZM21.2022 19.9819L20.0681 21.6293C20.4757 21.9098 20.9197 22.1412 21.3967 22.3149L22.0807 20.4355L22.7648 18.5561C22.6133 18.501 22.471 18.4273 22.3363 18.3345L21.2022 19.9819ZM18.3004 4.78158L17.3393 6.53551C19.6507 7.80209 22.7537 7.80209 25.0651 6.53552L24.104 4.78158L23.1429 3.02764C22.0289 3.63805 20.3755 3.63805 19.2615 3.02764L18.3004 4.78158ZM21.2024 5.71429H23.2024V0H21.2024H19.2024V5.71429H21.2024ZM0.25 26.6667V28.6667H33.5833V26.6667V24.6667H0.25V26.6667Z" fill="#0E0E0E"/>
</svg>