<svg xmlns="http://www.w3.org/2000/svg" width="41" height="40" viewBox="0 0 41 40" fill="none">
  <path d="M30.25 10H32V8.25004H30.25V10ZM22.75 16.6667H21C21 17.6332 21.7835 18.4167 22.75 18.4167V16.6667ZM10.25 10V8.25004H8.50001V10H10.25ZM17.75 16.6667V18.4167C18.7165 18.4167 19.5 17.6332 19.5 16.6667H17.75ZM10.25 3.33337V5.08337H30.25V3.33337V1.58337H10.25V3.33337ZM36.9167 10H35.1667V30H36.9167H38.6667V10H36.9167ZM30.25 36.6667V34.9167H10.25V36.6667V38.4167H30.25V36.6667ZM3.58334 30H5.33334V10H3.58334H1.83334V30H3.58334ZM10.25 36.6667V34.9167C8.62919 34.9167 7.58962 34.913 6.82562 34.8103C6.11196 34.7143 5.9059 34.5618 5.79709 34.453L4.55965 35.6904L3.32222 36.9278C4.18972 37.7953 5.25749 38.1309 6.35925 38.2791C7.41068 38.4204 8.72813 38.4167 10.25 38.4167V36.6667ZM3.58334 30H1.83334C1.83334 31.5219 1.82963 32.8394 1.97099 33.8908C2.11912 34.9926 2.45472 36.0603 3.32222 36.9278L4.55965 35.6904L5.79709 34.453C5.68828 34.3442 5.53573 34.1381 5.43978 33.4244C5.33706 32.6604 5.33334 31.6209 5.33334 30H3.58334ZM36.9167 30H35.1667C35.1667 31.6209 35.163 32.6604 35.0602 33.4244C34.9643 34.1381 34.8117 34.3442 34.7029 34.453L35.9404 35.6904L37.1778 36.9278C38.0453 36.0603 38.3809 34.9926 38.529 33.8908C38.6704 32.8394 38.6667 31.5219 38.6667 30H36.9167ZM30.25 36.6667V38.4167C31.7719 38.4167 33.0893 38.4204 34.1408 38.2791C35.2425 38.1309 36.3103 37.7953 37.1778 36.9278L35.9404 35.6904L34.7029 34.453C34.5941 34.5618 34.3881 34.7143 33.6744 34.8103C32.9104 34.913 31.8708 34.9167 30.25 34.9167V36.6667ZM30.25 3.33337V5.08337C31.8708 5.08337 32.9104 5.08709 33.6744 5.18981C34.3881 5.28576 34.5941 5.43831 34.7029 5.54712L35.9404 4.30968L37.1778 3.07225C36.3103 2.20475 35.2425 1.86915 34.1408 1.72102C33.0893 1.57966 31.7719 1.58337 30.25 1.58337V3.33337ZM36.9167 10H38.6667C38.6667 8.47816 38.6704 7.16071 38.529 6.10928C38.3809 5.00752 38.0453 3.93975 37.1778 3.07225L35.9404 4.30968L34.7029 5.54712C34.8117 5.65593 34.9643 5.86199 35.0602 6.57565C35.163 7.33965 35.1667 8.37922 35.1667 10H36.9167ZM10.25 3.33337V1.58337C8.72813 1.58337 7.41068 1.57966 6.35925 1.72102C5.25749 1.86915 4.18972 2.20475 3.32222 3.07225L4.55965 4.30968L5.79709 5.54712C5.9059 5.43831 6.11196 5.28576 6.82562 5.18981C7.58962 5.08709 8.62919 5.08337 10.25 5.08337V3.33337ZM3.58334 10H5.33334C5.33334 8.37922 5.33706 7.33965 5.43978 6.57565C5.53573 5.86199 5.68828 5.65593 5.79709 5.54712L4.55965 4.30968L3.32222 3.07225C2.45472 3.93975 2.11912 5.00752 1.97099 6.10928C1.82963 7.16071 1.83334 8.47816 1.83334 10H3.58334ZM27.75 10V11.75H30.25V10V8.25004H27.75V10ZM30.25 10H28.5V11.6667H30.25H32V10H30.25ZM25.25 16.6667V14.9167H22.75V16.6667V18.4167H25.25V16.6667ZM22.75 16.6667H24.5V15H22.75H21V16.6667H22.75ZM30.25 11.6667H28.5C28.5 13.4616 27.0449 14.9167 25.25 14.9167V16.6667V18.4167C28.9779 18.4167 32 15.3946 32 11.6667H30.25ZM27.75 10V8.25004C24.0221 8.25004 21 11.2721 21 15H22.75H24.5C24.5 13.2051 25.9551 11.75 27.75 11.75V10ZM12.75 10V8.25004H10.25V10V11.75H12.75V10ZM10.25 10H8.50001V11.6667H10.25H12V10H10.25ZM15.25 16.6667V18.4167H17.75V16.6667V14.9167H15.25V16.6667ZM17.75 16.6667H19.5V15H17.75H16V16.6667H17.75ZM10.25 11.6667H8.50001C8.50001 15.3946 11.5221 18.4167 15.25 18.4167V16.6667V14.9167C13.4551 14.9167 12 13.4616 12 11.6667H10.25ZM12.75 10V11.75C14.5449 11.75 16 13.2051 16 15H17.75H19.5C19.5 11.2721 16.4779 8.25004 12.75 8.25004V10ZM20.25 20H18.5V30H20.25H22V20H20.25ZM11.9167 30V31.75H28.5833V30V28.25H11.9167V30Z" fill="#0E0E0E"/>
</svg>