<svg xmlns="http://www.w3.org/2000/svg" width="44" height="44" viewBox="0 0 44 44" fill="none">
  <path d="M21.25 24V22.5H19.75V24H21.25ZM21.25 36H19.75V37.5H21.25V36ZM10.25 2V3.5H34.25V2V0.5H10.25V2ZM42.25 10H40.75V34H42.25H43.75V10H42.25ZM34.25 42V40.5H10.25V42V43.5H34.25V42ZM2.25 34H3.75V10H2.25H0.75V34H2.25ZM10.25 42V40.5C8.32198 40.5 7.02686 40.4968 6.06078 40.3669C5.13786 40.2428 4.74287 40.0284 4.48223 39.7678L3.42157 40.8284L2.36091 41.8891C3.27185 42.8 4.40545 43.1714 5.66104 43.3402C6.87348 43.5032 8.40679 43.5 10.25 43.5V42ZM2.25 34H0.75C0.75 35.8432 0.746814 37.3765 0.909822 38.589C1.07863 39.8445 1.44997 40.9781 2.36091 41.8891L3.42157 40.8284L4.48223 39.7678C4.2216 39.5071 4.00715 39.1121 3.88307 38.1892C3.75319 37.2231 3.75 35.928 3.75 34H2.25ZM42.25 34H40.75C40.75 35.928 40.7468 37.2231 40.6169 38.1892C40.4928 39.1121 40.2784 39.5071 40.0178 39.7678L41.0784 40.8284L42.1391 41.8891C43.05 40.9781 43.4214 39.8445 43.5902 38.589C43.7532 37.3765 43.75 35.8432 43.75 34H42.25ZM34.25 42V43.5C36.0932 43.5 37.6265 43.5032 38.839 43.3402C40.0945 43.1714 41.2281 42.8 42.1391 41.8891L41.0784 40.8284L40.0178 39.7678C39.7571 40.0284 39.3621 40.2428 38.4392 40.3669C37.4731 40.4968 36.178 40.5 34.25 40.5V42ZM34.25 2V3.5C36.178 3.5 37.4731 3.50319 38.4392 3.63307C39.3621 3.75715 39.7571 3.9716 40.0178 4.23223L41.0784 3.17157L42.1391 2.11091C41.2281 1.19997 40.0945 0.828632 38.839 0.659822C37.6265 0.496814 36.0932 0.5 34.25 0.5V2ZM42.25 10H43.75C43.75 8.15679 43.7532 6.62348 43.5902 5.41104C43.4214 4.15545 43.05 3.02185 42.1391 2.11091L41.0784 3.17157L40.0178 4.23223C40.2784 4.49287 40.4928 4.88786 40.6169 5.81078C40.7468 6.77686 40.75 8.07198 40.75 10H42.25ZM10.25 2V0.5C8.40679 0.5 6.87348 0.496814 5.66104 0.659822C4.40545 0.828632 3.27185 1.19997 2.36091 2.11091L3.42157 3.17157L4.48223 4.23223C4.74287 3.9716 5.13786 3.75715 6.06078 3.63307C7.02686 3.50319 8.32198 3.5 10.25 3.5V2ZM2.25 10H3.75C3.75 8.07198 3.75319 6.77686 3.88307 5.81078C4.00715 4.88786 4.2216 4.49287 4.48223 4.23223L3.42157 3.17157L2.36091 2.11091C1.44997 3.02185 1.07863 4.15545 0.909822 5.41104C0.746814 6.62348 0.75 8.15679 0.75 10H2.25ZM8.25 16V17.5H16.25V16V14.5H8.25V16ZM8.25 12H6.75V22H8.25H9.75V12H8.25ZM16.25 12H14.75V22H16.25H17.75V12H16.25ZM12.25 8V9.5C13.6307 9.5 14.75 10.6193 14.75 12H16.25H17.75C17.75 8.96243 15.2876 6.5 12.25 6.5V8ZM8.25 12H9.75C9.75 10.6193 10.8693 9.5 12.25 9.5V8V6.5C9.21243 6.5 6.75 8.96243 6.75 12H8.25ZM28.25 12H26.75V16H28.25H29.75V12H28.25ZM32.25 20V21.5C35.2876 21.5 37.75 19.0376 37.75 16H36.25H34.75C34.75 17.3807 33.6307 18.5 32.25 18.5V20ZM32.25 8V9.5C33.6307 9.5 34.75 10.6193 34.75 12H36.25H37.75C37.75 8.96243 35.2876 6.5 32.25 6.5V8ZM28.25 16H26.75C26.75 19.0376 29.2124 21.5 32.25 21.5V20V18.5C30.8693 18.5 29.75 17.3807 29.75 16H28.25ZM28.25 12H29.75C29.75 10.6193 30.8693 9.5 32.25 9.5V8V6.5C29.2124 6.5 26.75 8.96243 26.75 12H28.25ZM21.25 24V25.5H26.25V24V22.5H21.25V24ZM26.25 30V28.5H21.25V30V31.5H26.25V30ZM21.25 30H22.75V24H21.25H19.75V30H21.25ZM29.25 27H27.75C27.75 27.8284 27.0784 28.5 26.25 28.5V30V31.5C28.7353 31.5 30.75 29.4853 30.75 27H29.25ZM26.25 24V25.5C27.0784 25.5 27.75 26.1716 27.75 27H29.25H30.75C30.75 24.5147 28.7353 22.5 26.25 22.5V24ZM26.25 36V34.5H21.25V36V37.5H26.25V36ZM21.25 36H22.75V30H21.25H19.75V36H21.25ZM29.25 33H27.75C27.75 33.8284 27.0784 34.5 26.25 34.5V36V37.5C28.7353 37.5 30.75 35.4853 30.75 33H29.25ZM26.25 30V31.5C27.0784 31.5 27.75 32.1716 27.75 33H29.25H30.75C30.75 30.5147 28.7353 28.5 26.25 28.5V30Z" fill="#150D58"/>
</svg>