<svg width="24" height="24" viewBox="0 0 24 24" fill="none" xmlns="http://www.w3.org/2000/svg">
<path fill-rule="evenodd" clip-rule="evenodd" d="M5.93417 1C5.04769 0.999953 4.28387 0.99991 3.67221 1.08215C3.0167 1.17028 2.38835 1.36902 1.87868 1.87868C1.36902 2.38835 1.17028 3.0167 1.08215 3.67221C0.99991 4.28387 0.999953 5.04769 1 5.93417V18.0658C0.999953 18.9523 0.99991 19.7161 1.08215 20.3278C1.17028 20.9833 1.36902 21.6117 1.87868 22.1213C2.38835 22.631 3.0167 22.8297 3.67221 22.9179C4.28388 23.0001 5.0477 23.0001 5.9342 23H18.0658C18.9523 23.0001 19.7161 23.0001 20.3278 22.9179C20.9833 22.8297 21.6117 22.631 22.1213 22.1213C22.631 21.6117 22.8297 20.9833 22.9179 20.3278C23.0001 19.7161 23.0001 18.9523 23 18.0658V5.9342C23.0001 5.0477 23.0001 4.28388 22.9179 3.67221C22.8297 3.0167 22.631 2.38835 22.1213 1.87868C21.6117 1.36902 20.9833 1.17028 20.3278 1.08215C19.7161 0.99991 18.9523 0.999953 18.0658 1H5.93417ZM5 19V9H7V19H5ZM10 9V19H12V13.4142L13.6689 11.7453L13.6908 11.7234C14.1559 11.263 14.7829 11.0033 15.4373 11L15.4682 11L15.515 11.0001C16.3317 11.0082 16.9918 11.6683 16.9999 12.485L17 12.5318V19H19V12.5318V12.527C19 12.5022 19 12.4827 18.9998 12.465C18.9808 10.5594 17.4406 9.01922 15.535 9.00017C15.5174 9 15.4978 9 15.473 9H15.4682L15.4273 9.00006C14.2494 9.00594 13.1208 9.47343 12.2837 10.3022L12.2547 10.3311L12 10.5858V9H10ZM5 5V7H7V5H5Z" fill="#004C7F"/>
</svg>
