<svg width="24" height="24" viewBox="0 0 24 24" fill="none" xmlns="http://www.w3.org/2000/svg">
<path d="M3.37399 21.846H7.26299V9.28202H3.37399V21.846Z" fill="#222221"/>
<path d="M3.37399 21.846H7.26299V9.28202H3.37399V21.846Z" stroke="#ECECEC" stroke-width="0.5" stroke-miterlimit="10"/>
<path d="M5.3 7.637C6.57 7.637 7.6 6.598 7.6 5.318C7.6 4.038 6.57 3 5.3 3C4.029 3 3 4.038 3 5.318C3 6.598 4.029 7.637 5.3 7.637Z" fill="#222221"/>
<path d="M5.3 7.637C6.57 7.637 7.6 6.598 7.6 5.318C7.6 4.038 6.57 3 5.3 3C4.029 3 3 4.038 3 5.318C3 6.598 4.029 7.637 5.3 7.637Z" stroke="#ECECEC" stroke-width="0.5" stroke-miterlimit="10"/>
<path d="M13.481 15.2512C13.481 13.4852 14.294 12.4322 15.851 12.4322C17.281 12.4322 17.968 13.4422 17.968 15.2512V21.8462H21.839V13.8912C21.839 10.5262 19.931 8.89823 17.267 8.89823C14.602 8.89823 13.481 10.9752 13.481 10.9752V9.28223H9.75V21.8462H13.481V15.2512Z" fill="#222221"/>
<path d="M13.481 15.2512C13.481 13.4852 14.294 12.4322 15.851 12.4322C17.281 12.4322 17.968 13.4422 17.968 15.2512V21.8462H21.839V13.8912C21.839 10.5262 19.931 8.89823 17.267 8.89823C14.602 8.89823 13.481 10.9752 13.481 10.9752V9.28223H9.75V21.8462H13.481V15.2512Z" stroke="#ECECEC" stroke-width="0.5" stroke-miterlimit="10"/>
</svg>
