<svg width="88" height="48" viewBox="0 0 88 48" fill="none" xmlns="http://www.w3.org/2000/svg">
<path fill-rule="evenodd" clip-rule="evenodd" d="M0 8C0 3.58172 3.58172 0 8 0H79.592C84.0103 0 87.592 3.58172 87.592 8V40C87.592 44.4183 84.0103 48 79.592 48H8C3.58172 48 0 44.4183 0 40V8Z" fill="url(#paint0_linear_2319_88)"/>
<path d="M39.8901 11.0753L33.2675 37H28.582L22 11.0753H27.6337C27.6591 11.3616 27.72 11.7533 27.8214 12.2606L30.94 27.2017L34.1042 12.2606C34.2056 11.7784 34.2665 11.3867 34.2918 11.0753H39.8901ZM66 36.9247H50.7671C50.8127 36.5631 50.8381 36.2416 50.8381 35.9554V12.0798C50.8381 11.6931 50.8127 11.3365 50.7671 11H56.2943C56.2183 11.3616 56.1828 11.7081 56.1828 12.0446V32.3193H64.4331C64.8743 32.3193 65.3966 32.2942 66 32.244V36.9247ZM47.7296 36.9648H42.1263C42.177 36.6484 42.2024 36.322 42.2024 35.9855V12.0798C42.2024 11.7182 42.177 11.3867 42.1263 11.0753H47.7296C47.6789 11.3867 47.6536 11.7182 47.6536 12.0798V35.9855C47.6536 36.2969 47.6789 36.6233 47.7296 36.9648Z" fill="#FEFEFE"/>
<defs>
<linearGradient id="paint0_linear_2319_88" x1="33.2454" y1="47.2909" x2="39.8503" y2="-1.26599" gradientUnits="userSpaceOnUse">
<stop stop-color="#006AA8"/>
<stop offset="1" stop-color="#2E4A71"/>
</linearGradient>
</defs>
</svg>
