<svg width="76" height="46" viewBox="0 0 76 46" fill="none" xmlns="http://www.w3.org/2000/svg">
<path d="M30.9698 0.677716L19.6418 45.4521H11.6272L0.3685 0.677716H10.0051C10.0485 1.17213 10.1526 1.84869 10.3261 2.72475L15.6605 28.5294L21.073 2.72475C21.2465 1.89206 21.3505 1.2155 21.3939 0.677716H30.9698ZM75.6315 45.322H49.5753C49.6533 44.6975 49.6967 44.1424 49.6967 43.648V2.41249C49.6967 1.7446 49.6533 1.12876 49.5753 0.547607H59.0298C58.8996 1.17212 58.8389 1.77062 58.8389 2.35177V37.3681H72.9513C73.7059 37.3681 74.5993 37.3247 75.6315 37.238V45.322ZM44.3796 45.3914H34.795C34.8817 44.845 34.9251 44.2812 34.9251 43.7V2.41249C34.9251 1.78797 34.8817 1.2155 34.795 0.677716H44.3796C44.2929 1.2155 44.2495 1.78797 44.2495 2.41249V43.7C44.2495 44.2378 44.2929 44.8016 44.3796 45.3914Z" fill="#FEFEFE"/>
</svg>
