<svg width="56" height="56" viewBox="0 0 56 56" fill="none" xmlns="http://www.w3.org/2000/svg">
<circle cx="28" cy="28" r="28" fill="#FF004F" fill-opacity="0.12"/>
<path fill-rule="evenodd" clip-rule="evenodd" d="M28 15C35.1797 15 41 20.8203 41 28C41 35.1797 35.1797 41 28 41C20.8203 41 15 35.1797 15 28C15 20.8203 20.8203 15 28 15ZM33.428 22.691C33.1883 22.4549 32.8025 22.4577 32.5663 22.6973L28.2 27.1312L23.8344 22.6973L23.7883 22.6553C23.5505 22.4583 23.1974 22.4697 22.9727 22.691C22.7481 22.9123 22.7311 23.2651 22.9243 23.5059L22.9663 23.5527L27.3446 28L22.9663 32.4473C22.7302 32.6871 22.733 33.0729 22.9727 33.309C23.2124 33.5451 23.5982 33.5423 23.8344 33.3027L28.2 28.868L32.5663 33.3027L32.6124 33.3447C32.8502 33.5416 33.2033 33.5303 33.428 33.309C33.6527 33.0876 33.6691 32.7349 33.4756 32.4941L33.4344 32.4473L29.0553 28L33.4344 23.5527C33.6705 23.3129 33.6677 22.9271 33.428 22.691Z" fill="#FF004F"/>
</svg>
