<svg width="12" height="13" viewBox="0 0 12 13" fill="none" xmlns="http://www.w3.org/2000/svg">
<path d="M6.395 11.3751L1.5 6.07214V7.15548C1.5 7.44256 1.605 7.71881 1.795 7.91923L5.69 12.1388C6.08 12.5613 6.715 12.5613 7.105 12.1388L10.21 8.77506C10.6 8.35256 10.6 7.66464 10.21 7.24214L6.395 11.3751Z" fill="#8A70B2"/>
<path d="M5.69 9.43042C6.08 9.85292 6.715 9.85292 7.105 9.43042L10.21 6.06667C10.6 5.64417 10.6 4.95625 10.21 4.53375L6.315 0.314167C6.12507 0.113372 5.87038 0.000674552 5.605 0L2.5 0C1.95 0 1.5 0.4875 1.5 1.08333V4.44708C1.5 4.73417 1.605 5.01042 1.795 5.21083L5.69 9.43042ZM3.625 1.625C3.79076 1.625 3.94973 1.69634 4.06694 1.82331C4.18415 1.95029 4.25 2.12251 4.25 2.30208C4.25 2.48166 4.18415 2.65388 4.06694 2.78085C3.94973 2.90783 3.79076 2.97917 3.625 2.97917C3.45924 2.97917 3.30027 2.90783 3.18306 2.78085C3.06585 2.65388 3 2.48166 3 2.30208C3 2.12251 3.06585 1.95029 3.18306 1.82331C3.30027 1.69634 3.45924 1.625 3.625 1.625Z" fill="#8A70B2"/>
</svg>
