<svg width="32" height="32" viewBox="0 0 32 32" fill="none" xmlns="http://www.w3.org/2000/svg">
<path d="M4 6.66666C4 4.78105 4 3.83824 4.58579 3.25245C5.17157 2.66667 6.11438 2.66667 8 2.66667H24C25.8856 2.66667 26.8284 2.66667 27.4142 3.25245C28 3.83824 28 4.78105 28 6.66667V25.3333C28 27.219 28 28.1618 27.4142 28.7475C26.8284 29.3333 25.8856 29.3333 24 29.3333H8C6.11438 29.3333 5.17157 29.3333 4.58579 28.7475C4 28.1618 4 27.219 4 25.3333V6.66666Z" stroke="#0E0E0E" stroke-width="2" stroke-linejoin="round"/>
<path d="M9.33331 2.66667V29.3333" stroke="#0E0E0E" stroke-width="2" stroke-linejoin="round"/>
<path d="M20 24H24" stroke="#0E0E0E" stroke-width="2" stroke-linejoin="round"/>
<path d="M20 26.6667V20.6667C20 19.5621 20.8954 18.6667 22 18.6667V18.6667C23.1046 18.6667 24 19.5621 24 20.6667V26.6667" stroke="#0E0E0E" stroke-width="2" stroke-linejoin="round"/>
<path d="M12 8H22.6667" stroke="#0E0E0E" stroke-width="2" stroke-linejoin="round"/>
<path d="M14.6666 8V8C14.6666 9.69008 14.6666 10.5351 14.9742 11.2735C15.0979 11.5704 15.257 11.8512 15.4479 12.11C15.9228 12.7537 16.6474 13.1884 18.0966 14.058L21.3333 16M20 8V8C20 9.69008 20 10.5351 19.6924 11.2735C19.5687 11.5704 19.4097 11.8512 19.2187 12.11C18.7439 12.7537 18.0192 13.1884 16.57 14.058L13.3333 16" stroke="#0E0E0E" stroke-width="2" stroke-linejoin="round"/>
<path d="M17.3333 5.33333V8" stroke="#0E0E0E" stroke-width="2" stroke-linejoin="round"/>
</svg>
