<svg width="41" height="40" viewBox="0 0 41 40" fill="none" xmlns="http://www.w3.org/2000/svg">
<path d="M9.8085 7.2015C9.11557 6.50858 9.16425 5.36398 9.97538 4.8141C12.9061 2.82731 16.4425 1.66666 20.25 1.66666C24.0574 1.66666 27.5938 2.82731 30.5245 4.8141C31.3357 5.36398 31.3843 6.50858 30.6914 7.2015L27.0411 10.8518C26.4656 11.4273 25.5648 11.4886 24.8421 11.1144C23.4669 10.4023 21.9054 9.99999 20.25 9.99999C18.5945 9.99999 17.033 10.4023 15.6578 11.1144C14.9351 11.4886 14.0343 11.4273 13.4588 10.8518L9.8085 7.2015Z" fill="#004C7F"/>
<path d="M7.45147 9.55853C6.75855 8.8656 5.61395 8.91428 5.06407 9.72541C3.07728 12.6562 1.91663 16.1925 1.91663 20C1.91663 23.8074 3.07728 27.3438 5.06407 30.2746C5.61395 31.0857 6.75855 31.1344 7.45147 30.4415L11.1018 26.7911C11.6773 26.2156 11.7386 25.3148 11.3644 24.5921C10.6522 23.217 10.25 21.6555 10.25 20C10.25 18.3445 10.6522 16.783 11.3644 15.4079C11.7386 14.6852 11.6773 13.7843 11.1018 13.2089L7.45147 9.55853Z" fill="#004C7F"/>
<path d="M29.1356 15.4079C28.7613 14.6852 28.8226 13.7843 29.3981 13.2089L33.0484 9.55853C33.7414 8.8656 34.886 8.91428 35.4358 9.72541C37.4226 12.6562 38.5833 16.1925 38.5833 20C38.5833 23.8074 37.4226 27.3438 35.4358 30.2746C34.886 31.0857 33.7414 31.1344 33.0484 30.4415L29.3981 26.7911C28.8226 26.2156 28.7613 25.3148 29.1356 24.5921C29.8477 23.217 30.25 21.6555 30.25 20C30.25 18.3445 29.8477 16.783 29.1356 15.4079Z" fill="#004C7F"/>
<path d="M27.0411 29.1481C26.4656 28.5727 25.5648 28.5113 24.8421 28.8856C23.4669 29.5977 21.9054 30 20.25 30C18.5945 30 17.033 29.5977 15.6578 28.8856C14.9351 28.5113 14.0343 28.5727 13.4588 29.1481L9.8085 32.7985C9.11557 33.4914 9.16425 34.636 9.97538 35.1859C12.9061 37.1727 16.4425 38.3333 20.25 38.3333C24.0574 38.3333 27.5938 37.1727 30.5245 35.1859C31.3357 34.636 31.3843 33.4914 30.6914 32.7985L27.0411 29.1481Z" fill="#004C7F"/>
<path d="M13.5833 20C13.5833 16.3181 16.5681 13.3333 20.25 13.3333C23.9319 13.3333 26.9166 16.3181 26.9166 20C26.9166 23.6819 23.9319 26.6667 20.25 26.6667C16.5681 26.6667 13.5833 23.6819 13.5833 20Z" fill="#004C7F"/>
</svg>
