<svg width="41" height="40" viewBox="0 0 41 40" fill="none" xmlns="http://www.w3.org/2000/svg">
<path d="M2.41667 6.66668C2.41667 4.82573 3.90906 3.33334 5.75 3.33334H12.4167C14.2576 3.33334 15.75 4.82573 15.75 6.66668V13.3333C15.75 15.1743 14.2576 16.6667 12.4167 16.6667H5.75C3.90906 16.6667 2.41667 15.1743 2.41667 13.3333V6.66668Z" fill="#004C7F"/>
<path d="M32.4167 33.3333C33.3371 33.3333 34.0833 32.5872 34.0833 31.6667C34.0833 30.7462 33.3371 30 32.4167 30C31.4962 30 30.75 30.7462 30.75 31.6667C30.75 32.5872 31.4962 33.3333 32.4167 33.3333Z" fill="#004C7F"/>
<path fill-rule="evenodd" clip-rule="evenodd" d="M31.1368 14.6752C30.6658 12.7914 28.6909 11.7073 26.8489 12.3213L23.5563 13.4189L24.6104 16.5811L27.9029 15.4836L30.3626 25.3224C28.2054 26.0204 26.5294 27.788 25.96 30H21.2929L22.8052 24.7069C23.7178 21.5129 21.3195 18.3333 17.9976 18.3333H10.75C9.17622 18.3333 7.69428 19.0743 6.75 20.3333L3.41667 24.7778C2.76756 25.6433 2.41667 26.6959 2.41667 27.7778V30C2.41667 31.2846 3.14328 32.3994 4.20791 32.9559C4.80846 36.0209 7.50918 38.3333 10.75 38.3333C13.8564 38.3333 16.4666 36.2087 17.2066 33.3333H25.96C26.7001 36.2087 29.3103 38.3333 32.4167 38.3333C36.0986 38.3333 39.0833 35.3486 39.0833 31.6667C39.0833 28.4419 36.7937 25.7519 33.7514 25.1336L31.1368 14.6752ZM10.75 35C9.5162 35 8.43896 34.3297 7.86261 33.3333H13.6374C13.061 34.3297 11.9838 35 10.75 35ZM32.4167 35C30.5757 35 29.0833 33.5076 29.0833 31.6667C29.0833 29.8257 30.5757 28.3333 32.4167 28.3333C34.2576 28.3333 35.75 29.8257 35.75 31.6667C35.75 33.5076 34.2576 35 32.4167 35Z" fill="#004C7F"/>
</svg>
