<svg width="32" height="32" viewBox="0 0 32 32" fill="none" xmlns="http://www.w3.org/2000/svg">
<path d="M29.3333 12V3.99483C29.3305 3.26249 28.7375 2.66951 28.0052 2.66667L27.9934 2.66666L27.9298 2.66669C23.7078 2.67487 19.6601 4.35145 16.669 7.33107L16 8M16 8L15.331 7.33107C12.3399 4.35145 8.29222 2.67487 4.07023 2.66669L4.00657 2.66666L3.99483 2.66667C3.26249 2.66951 2.66951 3.26249 2.66667 3.99483L2.66666 15.7333C2.66666 15.9811 2.66666 16.1049 2.68308 16.2086C2.77344 16.7791 3.22089 17.2266 3.79142 17.3169C3.89506 17.3333 4.01893 17.3333 4.26666 17.3333C5.32109 17.3333 5.84831 17.3333 6.36222 17.3664C7.56581 17.444 9.14024 17.8026 10.6667 18.2313M16 8V10.6667" stroke="#0E0E0E" stroke-width="2" stroke-linejoin="round"/>
<circle cx="21.3333" cy="21.3333" r="8" stroke="#0E0E0E" stroke-width="2" stroke-linejoin="round"/>
<path d="M21.3333 13.3333C19.7213 15.0947 18.6667 18.0211 18.6667 21.3333C18.6667 24.6456 19.7213 27.572 21.3333 29.3333C22.9453 27.572 24 24.6456 24 21.3333C24 18.0211 22.9453 15.0947 21.3333 13.3333Z" stroke="#0E0E0E" stroke-width="2" stroke-linejoin="round"/>
</svg>
