<svg width="32" height="32" viewBox="0 0 32 32" fill="none" xmlns="http://www.w3.org/2000/svg">
<path d="M2.66666 13.3333L2.15216 12.4758C1.85096 12.6566 1.66666 12.9821 1.66666 13.3333C1.66666 13.6846 1.85096 14.0101 2.15216 14.1908L2.66666 13.3333ZM16 5.33333L16.5145 4.47584C16.1978 4.28583 15.8022 4.28583 15.4855 4.47584L16 5.33333ZM29.3333 13.3333H30.3333C30.3333 12.9821 30.149 12.6566 29.8478 12.4758L29.3333 13.3333ZM16 21.3333L15.4855 22.1908C15.8022 22.3808 16.1978 22.3808 16.5145 22.1908L16 21.3333ZM2.66666 13.3333L3.18115 14.1908L16.5145 6.19082L16 5.33333L15.4855 4.47584L2.15216 12.4758L2.66666 13.3333ZM16 5.33333L15.4855 6.19083L28.8188 14.1908L29.3333 13.3333L29.8478 12.4758L16.5145 4.47584L16 5.33333ZM2.66666 13.3333L2.15216 14.1908L15.4855 22.1908L16 21.3333L16.5145 20.4758L3.18115 12.4758L2.66666 13.3333ZM16 21.3333L16.5145 22.1908L29.8478 14.1908L29.3333 13.3333L28.8188 12.4758L15.4855 20.4758L16 21.3333ZM7.99999 16H6.99999V24H7.99999H8.99999V16H7.99999ZM10.6667 26.6667V27.6667H21.3333V26.6667V25.6667H10.6667V26.6667ZM24 24H25V16H24H23V24H24ZM21.3333 26.6667V27.6667C23.3584 27.6667 25 26.025 25 24H24H23C23 24.9205 22.2538 25.6667 21.3333 25.6667V26.6667ZM7.99999 24H6.99999C6.99999 26.025 8.64161 27.6667 10.6667 27.6667V26.6667V25.6667C9.74618 25.6667 8.99999 24.9205 8.99999 24H7.99999ZM29.3333 13.3333H28.3333V22.6667H29.3333H30.3333V13.3333H29.3333Z" fill="#0E0E0E"/>
</svg>
