<svg width="41" height="40" viewBox="0 0 41 40" fill="none" xmlns="http://www.w3.org/2000/svg">
<path fill-rule="evenodd" clip-rule="evenodd" d="M2.41669 13.3333C2.41669 6.89 7.64003 1.66666 14.0834 1.66666C20.5267 1.66666 25.75 6.89 25.75 13.3333C25.75 19.7766 20.5267 25 14.0834 25C7.64003 25 2.41669 19.7766 2.41669 13.3333ZM12.1726 8.33332C10.9267 8.33332 9.91669 9.34333 9.91669 10.5892C9.91669 11.1876 10.1544 11.7614 10.5774 12.1844L13.393 15H9.91669V18.3333H12.4167V20H15.75V18.3333H15.9941C17.24 18.3333 18.25 17.3233 18.25 16.0774C18.25 15.4791 18.0123 14.9053 17.5893 14.4822L14.7737 11.6667H18.25V8.33332H15.75V6.66666H12.4167V8.33332H12.1726ZM14.9167 30C12.6155 30 10.75 31.8655 10.75 34.1667C10.75 36.4678 12.6155 38.3333 14.9167 38.3333H25.0597C25.9437 38.3333 26.7916 37.9821 27.4167 37.357L33.107 31.6667H35.75C37.591 31.6667 39.0834 30.1743 39.0834 28.3333V25C39.0834 23.159 37.591 21.6667 35.75 21.6667H28.1071C27.6651 21.6667 27.2411 21.8422 26.9286 22.1548L20.7501 28.3332C19.8296 29.2537 19.8296 30.7461 20.7501 31.6665C21.6705 32.587 23.1629 32.587 24.0834 31.6665L26.4404 29.3095L27.7098 30.3972L25.2619 32.8451C23.6906 34.4164 21.1429 34.4164 19.5716 32.8451C18.9976 32.2711 18.6332 31.5668 18.4786 30.8274C18.3844 30.3769 18.02 30 17.5597 30H14.9167Z" fill="#004C7F"/>
</svg>
