<svg width="41" height="40" viewBox="0 0 41 40" fill="none" xmlns="http://www.w3.org/2000/svg">
<path fill-rule="evenodd" clip-rule="evenodd" d="M10.1403 6.66666C8.66283 6.66658 7.38981 6.66651 6.37038 6.80357C5.27785 6.95045 4.2306 7.28169 3.38116 8.13113C2.53172 8.98057 2.20048 10.0278 2.0536 11.1203C1.91654 12.1398 1.91661 13.4128 1.91669 14.8903V25.1097C1.91661 26.5872 1.91654 27.8602 2.0536 28.8797C2.20048 29.9722 2.53172 31.0194 3.38116 31.8689C4.2306 32.7183 5.27785 33.0495 6.37038 33.1964C7.38981 33.3335 8.66283 33.3334 10.1403 33.3333H30.3597C31.8372 33.3334 33.1102 33.3335 34.1297 33.1964C35.2222 33.0495 36.2695 32.7183 37.1189 31.8689C37.9683 31.0194 38.2996 29.9722 38.4465 28.8797C38.5835 27.8602 38.5835 26.5872 38.5834 25.1097V14.8903C38.5835 13.4128 38.5835 12.1398 38.4465 11.1203C38.2996 10.0278 37.9683 8.98057 37.1189 8.13113C36.2695 7.28169 35.2222 6.95045 34.1297 6.80357C33.1102 6.66651 31.8372 6.66658 30.3597 6.66666H10.1403ZM26.3447 24.3688C28.9482 21.7653 28.9482 17.5442 26.3447 14.9407L28.7017 12.5837C32.6069 16.4889 32.6069 22.8206 28.7017 26.7258L26.3447 24.3688ZM22.8091 18.4763C23.46 19.1271 23.46 20.1824 22.8091 20.8333L25.1662 23.1903C27.1188 21.2377 27.1188 18.0719 25.1662 16.1193L22.8091 18.4763Z" fill="#004C7F"/>
</svg>
