<svg xmlns="http://www.w3.org/2000/svg" width="61" height="51" viewBox="0 0 61 51" fill="none">
  <path d="M30.5 0.706329C30.5598 1.04921 30.6116 1.40453 30.6544 1.77071C33.3861 18.897 46.4585 24.3219 55.8664 25.2193C57.4857 25.0949 59.1957 25.1048 61 25.2684C59.5148 25.3971 57.7653 25.4004 55.8664 25.2193C38.9563 26.5182 31.9274 42.4608 30.5 51C28.8736 32.3512 14.2105 26.4078 4.21929 25.4073C2.87733 25.4112 1.47179 25.3662 0 25.2684C1.25248 25.2163 2.68047 25.2532 4.21929 25.4073C27.5661 25.3396 31.6712 10.4803 30.6544 1.77071C30.5986 1.42082 30.5471 1.06605 30.5 0.706329Z" fill="#B3FC6A"/>
</svg>