<svg xmlns="http://www.w3.org/2000/svg" width="61" height="51" viewBox="0 0 61 51" fill="none">
  <path d="M30.5 0C30.5598 0.342885 30.6116 0.698197 30.6544 1.06438C33.3861 18.1907 46.4585 23.6156 55.8664 24.513C57.4857 24.3886 59.1957 24.3985 61 24.562C59.5148 24.6908 57.7653 24.6941 55.8664 24.513C38.9563 25.8119 31.9274 41.7544 30.5 50.2937C28.8736 31.6449 14.2105 25.7015 4.21929 24.7009C2.87733 24.7048 1.47179 24.6599 0 24.562C1.25248 24.51 2.68047 24.5468 4.21929 24.7009C27.5661 24.6333 31.6712 9.77395 30.6544 1.06438C30.5986 0.714493 30.5471 0.359716 30.5 0Z" fill="#F6C101"/>
</svg>