<svg xmlns="http://www.w3.org/2000/svg" width="32" height="32" viewBox="0 0 32 32" fill="none">
  <path d="M22.4291 6.84571C21.4516 5.72509 20.8639 4.2639 20.8639 2.6665H19.6391C19.9545 4.4125 20.9939 5.91085 22.4291 6.84571Z" fill="#161A1F"/>
  <path d="M11.0957 15.8729C8.97384 15.8729 7.24788 17.6003 7.24788 19.724C7.24788 21.2038 8.08921 22.4916 9.31408 23.1355C8.85631 22.5039 8.58411 21.73 8.58411 20.888C8.58411 18.7643 10.3101 17.0369 12.432 17.0369C12.8279 17.0369 13.2114 17.1049 13.5702 17.2164V12.5357C13.199 12.4861 12.8217 12.4552 12.432 12.4552C12.3639 12.4552 12.302 12.4614 12.234 12.4614V16.0524C11.869 15.941 11.4916 15.8729 11.0957 15.8729Z" fill="#161A1F"/>
  <path d="M25.8994 8.90128V12.4614C23.5238 12.4614 21.3215 11.6998 19.5275 10.412V19.7302C19.5275 24.38 15.7477 28.1692 11.0956 28.1692C9.30161 28.1692 7.63133 27.5995 6.26416 26.6399C7.80454 28.2929 10.0007 29.3332 12.4319 29.3332C17.0777 29.3332 20.8637 25.5502 20.8637 20.8942V11.576C22.6577 12.8638 24.86 13.6253 27.2356 13.6253V9.04374C26.7716 9.04374 26.3262 8.99415 25.8994 8.90128Z" fill="#161A1F"/>
  <path d="M19.5275 19.7302V10.412C21.3215 11.6998 23.5238 12.4614 25.8994 12.4614V8.90128C24.526 8.61035 23.3199 7.86734 22.4291 6.84571C20.9938 5.91085 19.9606 4.4125 19.6326 2.6665H16.2797L16.2735 21.0365C16.1993 23.0921 14.5042 24.7453 12.4319 24.7453C11.1451 24.7453 10.013 24.1075 9.30781 23.1417C8.08292 22.4915 7.2416 21.21 7.2416 19.7302C7.2416 17.6065 8.96756 15.8791 11.0894 15.8791C11.4854 15.8791 11.8689 15.9471 12.2277 16.0586V12.4676C7.67464 12.5666 4 16.3063 4 20.8942C4 23.1107 4.85989 25.1292 6.26416 26.6399C7.63133 27.5995 9.30161 28.1692 11.0956 28.1692C15.7415 28.1692 19.5275 24.38 19.5275 19.7302Z" fill="#161A1F"/>
</svg>