<svg width="24" height="24" viewBox="0 0 24 24" fill="none" xmlns="http://www.w3.org/2000/svg">
<path d="M19.312 10.767C19.175 10.78 19.038 10.787 18.901 10.788C17.395 10.788 15.99 10.029 15.165 8.76899L15.164 15.644C15.163 18.451 12.888 20.725 10.081 20.725C7.275 20.725 5 18.451 5 15.644C5.001 12.837 7.276 10.562 10.083 10.562C10.189 10.562 10.293 10.572 10.397 10.579V13.083C10.292 13.07 10.19 13.051 10.083 13.051C8.65 13.051 7.489 14.212 7.489 15.644C7.488 17.077 8.649 18.238 10.082 18.238C11.514 18.238 12.78 17.109 12.78 15.677L12.807 4H15.203C15.428 6.148 17.16 7.82701 19.315 7.984L19.314 10.767" fill="#222221"/>
</svg>
