<svg width="20" height="19" viewBox="0 0 20 19" fill="none" xmlns="http://www.w3.org/2000/svg">
<path d="M10.3019 3.20618C11.1274 3.20618 11.9191 3.53411 12.5028 4.11784C13.0866 4.70157 13.4145 5.49328 13.4145 6.31879C13.4145 7.14431 13.0866 7.93602 12.5028 8.51975C11.9191 9.10347 11.1274 9.43141 10.3019 9.43141C9.47638 9.43141 8.68467 9.10347 8.10094 8.51975C7.51721 7.93602 7.18928 7.14431 7.18928 6.31879C7.18928 5.49328 7.51721 4.70157 8.10094 4.11784C8.68467 3.53411 9.47638 3.20618 10.3019 3.20618ZM10.3019 10.9877C13.7413 10.9877 16.5271 12.3806 16.5271 14.1003V15.6566H4.07666V14.1003C4.07666 12.3806 6.86245 10.9877 10.3019 10.9877Z" fill="#F47B20"/>
</svg>
