<svg xmlns="http://www.w3.org/2000/svg" width="165" height="280" viewBox="0 0 165 280" fill="none">
  <path opacity="0.04" d="M262.398 186.327C241.263 171.979 207.7 145.158 200.578 154.549C193.16 164.384 218.445 190.969 231.33 208.657C248.094 231.651 256.438 251.091 253.759 262.852C251.948 270.811 247.384 276.884 239.544 278.971C212.095 286.356 146.455 234.1 98.993 187.443C61.8259 150.874 18.8032 107.562 4.22641 72.7558C-4.6448 51.64 2.00762 37.8787 21.1562 42.343C39.0534 46.5668 61.5698 63.2395 84.3352 82.8455C114.25 108.559 120.733 110.777 124.12 107.716C128.89 103.373 109.577 83.8273 89.7559 61.8915C78.6704 49.5651 72.2193 39.5513 77.7457 36.3731C87.3436 30.6785 134.176 81.3092 144.083 74.3263C148.566 71.1101 140.901 60.4026 134.481 52.4369C123.159 38.4124 109.338 25.0118 98.3297 10.8038C90.3666 0.54017 84.0134 -9.98978 82.1009 -18.7016C79.5482 -30.3607 84.2854 -39.3832 93.038 -41.4371C95.4752 -41.9983 98.4973 -42.0511 101.721 -41.4792C116.898 -38.6212 131.802 -30.7696 156.073 -12.571C181.129 6.20848 209.742 32.4272 233.557 55.8076C260.63 82.3604 295.95 119.577 316.785 147.82C353.511 197.597 334.35 228.221 283.367 199.598C277.332 196.227 270.081 191.61 262.367 186.359L262.398 186.327Z" fill="#9200FF"/>
</svg>