<svg xmlns="http://www.w3.org/2000/svg" width="217" height="161" viewBox="0 0 217 161" fill="none">
  <path opacity="0.05" d="M149.029 81.4587C145.677 91.9576 139.01 105.385 135.574 115.908C131.046 129.998 135.656 143.002 143.599 150.763C156.425 163.257 180.755 164.081 196.988 153.248C201.802 150.033 207.789 145.626 211.425 140.886C220.867 128.758 224.829 113.378 219.938 100.273C216.177 90.2892 207.122 85.694 198.369 81.6018C191.962 78.6129 181.363 76.4459 178.774 68.7565C175.224 58.4414 183.538 52.8789 191.514 51.984C210.225 49.7776 225.488 67.6948 245.249 58.7178C262.754 50.7858 278.6 27.3869 280.683 7.55827C284.738 -31.1622 248.668 -58.8209 212.738 -42.3797C200.661 -36.886 188.977 -23.6262 185.341 -10.2857C181.972 1.98386 178.466 -19.8876 167.75 -12.2885C156.795 -4.53137 141.921 -5.3099 132.026 -10.9808C119.793 -17.9832 114.239 1.15034 110.529 -12.2885C103.753 -37.1298 76.2711 -49.8752 51.643 -35.8567C24.8504 -20.5025 -0.571477 22.5326 0.72732 53.267C2.2565 87.0147 33.494 119.117 66.9142 95.7337C78.4806 87.668 85.5736 76.2935 94.7364 65.6925C101.751 57.5997 111.141 48.383 121.375 46.4433C134.942 43.8336 150.423 53.6761 151.566 67.8851C151.932 71.992 150.232 77.4971 149.015 81.3721L149.029 81.4587Z" fill="#FFBF00"/>
</svg>