<svg xmlns="http://www.w3.org/2000/svg" width="206" height="227" viewBox="0 0 206 227" fill="none">
  <path opacity="0.06" d="M280.704 -0.23591C321.527 52.7125 267.274 107.723 221.034 163.193C199.737 188.795 130.432 262.089 121.212 205.16C117.894 184.435 135.679 147.394 148.412 118.62C158.041 97.0453 148.266 106.674 142.14 113.631C115.314 144.162 73.3719 191.675 54.3751 152.676C41.5587 126.443 61.7632 75.4015 81.1155 40.859C90.5388 24.0122 81.8561 31.0971 76.7882 34.9146C58.6385 48.6874 41.0269 63.9118 23.7992 57.3741C4.57319 50.1568 -1.76701 25.8891 1.14075 8.29575C8.27603 -34.8275 56.6783 -109.507 99.5961 -126.328C133.521 -139.61 162.5 -113.373 183.459 -97.2693C219.617 -69.4172 252.487 -36.9004 280.863 -0.223225L280.704 -0.23591Z" fill="#90FD00"/>
</svg>