<svg xmlns="http://www.w3.org/2000/svg" width="223" height="183" viewBox="0 0 223 183" fill="none">
  <path opacity="0.04" d="M109.271 34.1857C109.767 23.176 112.7 8.47412 113.271 -2.58068C113.965 -17.3644 106.122 -28.7148 96.4296 -34.135C80.7875 -42.8491 57.0851 -37.2958 44.2408 -22.6028C40.4329 -18.2424 35.8036 -12.4258 33.53 -6.90197C27.5802 7.26996 27.7681 23.1505 35.9096 34.5253C42.1448 43.1823 52.0859 45.2554 61.6027 46.9221C68.5682 48.1355 79.3656 47.4618 83.8708 54.2094C89.9891 63.2409 83.4152 70.7799 75.9483 73.7252C58.4616 80.7374 39.0521 67.4235 22.3178 81.2458C7.48935 93.4706 -1.70177 120.193 1.46114 139.879C7.64963 178.316 49.6873 195.605 80.0825 170.358C90.308 161.903 98.1273 146.054 98.1556 132.227C98.2071 119.503 100.387 105.252 108.749 95.1196C117.301 84.7727 131.863 81.643 142.895 84.5356C156.531 88.1035 163.811 102.634 170.899 114.639C183.922 136.852 213.778 141.985 233.895 122.026C255.753 100.213 269.065 52.035 259.791 22.7042C249.509 -9.47538 210.977 -32.3145 184.816 -1.02107C175.755 9.78324 171.876 22.6144 165.797 35.2391C161.137 44.8819 154.477 56.2296 145.104 60.7723C132.688 66.8316 115.175 61.3696 110.363 47.9512C108.939 44.0821 109.143 38.324 109.307 34.2656L109.271 34.1857Z" fill="#FF4600"/>
</svg>