<svg xmlns="http://www.w3.org/2000/svg" width="183" height="181" viewBox="0 0 183 181" fill="none">
  <path opacity="0.04" d="M226.063 16.4091C224.294 -4.89824 218.661 -27.1965 204.929 -39.6552C197.435 -46.4509 191.616 -48.0083 183.703 -47.1588C165.874 -45.4599 156.518 -30.028 150.094 -10.4904C148.418 -5.46445 147.766 -6.80964 147.022 -10.703C143.903 -27.763 137.944 -44.1857 124.352 -48.5038C104.243 -54.804 91.395 -40.8588 82.1316 -13.2513C80.8748 -9.4995 80.5024 -8.0839 79.3852 -12.5436C71.3787 -45.4602 42.9835 -44.6814 28.4135 -29.6743C5.74392 -6.38486 0.15804 45.5031 0.251138 86.2772C0.344237 122.946 8.21111 179.152 39.3993 177.24C52.9452 176.391 66.3049 161.88 71.8442 141.351C72.9149 137.457 73.3804 133.705 74.2183 139.298C83.4351 202.299 135.338 186.584 145.299 140.643C146.742 134.059 147.58 135.475 148.604 140.643C153.911 166.764 173.182 183.47 190.638 177.099C227.366 163.791 232.021 87.9054 226.109 16.4091H226.063Z" fill="#00B5FF"/>
</svg>