<svg xmlns="http://www.w3.org/2000/svg" width="176" height="191" viewBox="0 0 176 191" fill="none">
  <path opacity="0.04" d="M39.1257 77.6303C14.3761 85.966 1.63884 104.942 11.8277 121.274C17.708 130.671 35.9227 133.705 48.9003 132.181C55.3501 131.421 61.6166 129.905 67.2952 127.239C83.6402 119.559 96.8197 99.8633 110.814 96.2522C124.499 92.7109 114.286 112.416 112.161 116.243C111.356 117.737 110.552 119.231 109.59 120.672C99.6871 136.03 92.3296 154.871 97.1386 171.338C100.871 183.918 113.028 192.093 131.299 190.202C149.494 188.373 159.673 172.009 161.754 160.507C164.813 143.639 162.63 126.432 163.113 109.539C163.251 104.729 161.491 92.7223 174.193 94.3729C184.858 95.804 188.234 107.167 191.432 113.614C200.627 132.677 220.091 153.009 250.735 150.145C258.746 149.386 267.961 145.245 272.536 140.099C278.237 133.74 278.577 125.876 276.527 118.802C272.063 103.26 259.128 90.8359 240.694 83.8844C233.574 81.2119 226.235 78.9574 218.525 77.2437C206.25 74.4643 185.074 71.5378 181.31 60.2477C180.44 57.7595 182.361 54.7603 184.954 53.0846C192.728 47.9404 203.968 48.0031 213.346 48.3675C224.286 48.7926 235.067 49.1063 246.099 47.7117C253.012 46.8174 259.744 45.2265 265.972 42.6577C270.431 40.7974 274.711 38.299 278.119 35.4219C281.15 32.91 284.077 29.6987 285.916 26.5853C289.225 20.9579 289.497 11.2212 285.791 5.84711C277.473 -6.21602 257.913 -9.78685 241.168 -10.9984C217.384 -12.6589 193.146 -11.7833 169.128 -11.2672C149.012 -10.7749 128.893 -10.3411 108.716 -9.37786C93.4481 -8.59196 78.1156 -7.45211 63.0759 -4.68221C56.4871 -3.44807 49.9848 -1.98271 43.6531 -0.113307C31.2993 3.5557 18.6844 8.64041 9.60036 16.4102C1.12287 23.6892 -1.55532 33.8058 0.956712 42.8559C3.73428 52.7753 12.5253 58.4931 26.5206 59.218C45.4407 60.1752 60.1791 57.7092 78.61 53.7621C85.2704 52.3496 102.633 49.0855 105.08 54.1536C108.204 60.7205 88.1874 66.1312 81.3775 67.7249C70.7003 70.2786 52.8401 72.7403 38.9593 77.3434L39.1257 77.6303Z" fill="#FF009D"/>
</svg>