<svg width="33" height="32" viewBox="0 0 33 32" fill="none" xmlns="http://www.w3.org/2000/svg">
<path d="M4.25 6.66668C4.25 4.78107 4.25 3.83826 4.83579 3.25247C5.42157 2.66669 6.36438 2.66669 8.25 2.66669H24.25C26.1356 2.66669 27.0784 2.66669 27.6642 3.25247C28.25 3.83826 28.25 4.78107 28.25 6.66669V25.3334C28.25 27.219 28.25 28.1618 27.6642 28.7476C27.0784 29.3334 26.1356 29.3334 24.25 29.3334H8.25C6.36438 29.3334 5.42157 29.3334 4.83579 28.7476C4.25 28.1618 4.25 27.219 4.25 25.3334V6.66668Z" stroke="#44360C" stroke-width="2" stroke-linejoin="round"/>
<path d="M9.58331 2.66669V29.3334" stroke="#44360C" stroke-width="2" stroke-linejoin="round"/>
<path d="M20.25 24H24.25" stroke="#44360C" stroke-width="2" stroke-linejoin="round"/>
<path d="M20.25 26.6667V20.6667C20.25 19.5621 21.1454 18.6667 22.25 18.6667V18.6667C23.3546 18.6667 24.25 19.5621 24.25 20.6667V26.6667" stroke="#44360C" stroke-width="2" stroke-linejoin="round"/>
<path d="M12.25 8H22.9167" stroke="#44360C" stroke-width="2" stroke-linejoin="round"/>
<path d="M14.9166 8V8C14.9166 9.69008 14.9166 10.5351 15.2242 11.2735C15.3479 11.5704 15.507 11.8512 15.6979 12.11C16.1728 12.7537 16.8974 13.1884 18.3466 14.058L21.5833 16M20.25 8V8C20.25 9.69008 20.25 10.5351 19.9424 11.2735C19.8187 11.5704 19.6597 11.8512 19.4687 12.11C18.9939 12.7537 18.2692 13.1884 16.82 14.058L13.5833 16" stroke="#44360C" stroke-width="2" stroke-linejoin="round"/>
<path d="M17.5833 5.33331V7.99998" stroke="#44360C" stroke-width="2" stroke-linejoin="round"/>
</svg>
