<svg width="33" height="32" viewBox="0 0 33 32" fill="none" xmlns="http://www.w3.org/2000/svg">
<rect width="32" height="32" transform="translate(0.25)" fill="#F3EBF9"/>
<path d="M2.91666 16C2.91666 23.3638 8.88619 29.3334 16.25 29.3334C16.9449 29.3334 17.6275 29.2802 18.2938 29.1777C17.9281 28.5715 17.044 27.1638 16.2721 25.6952C15.2508 23.7522 16.6857 21.9841 18.8807 21.9644L25.5561 21.9044C26.9855 21.8916 28.359 21.1416 28.8848 19.8124C29.3378 18.6673 29.5833 17.4935 29.5833 16C29.5833 8.63622 23.6138 2.66669 16.25 2.66669C8.88619 2.66669 2.91666 8.63622 2.91666 16Z" stroke="#300D4B" stroke-width="2" stroke-linejoin="round"/>
<path d="M21.5833 10.6667C21.5833 12.1394 20.3894 13.3334 18.9167 13.3334C17.4439 13.3334 16.25 12.1394 16.25 10.6667C16.25 9.19393 17.4439 8.00002 18.9167 8.00002C20.3894 8.00002 21.5833 9.19393 21.5833 10.6667Z" stroke="#300D4B" stroke-width="2" stroke-linejoin="round"/>
<path d="M13.5833 16C13.5833 17.4728 12.3894 18.6667 10.9167 18.6667C9.4439 18.6667 8.24999 17.4728 8.24999 16C8.24999 14.5273 9.4439 13.3334 10.9167 13.3334C12.3894 13.3334 13.5833 14.5273 13.5833 16Z" stroke="#300D4B" stroke-width="2" stroke-linejoin="round"/>
</svg>
