<svg width="33" height="32" viewBox="0 0 33 32" fill="none" xmlns="http://www.w3.org/2000/svg">
<rect width="32" height="32" transform="translate(0.25)" fill="#FDEDE7"/>
<path d="M2.91666 16.22C2.91666 15.7039 2.91666 15.4459 3.00961 15.2457C3.1091 15.0313 3.2813 14.8591 3.49566 14.7596C3.6959 14.6667 3.95392 14.6667 4.46995 14.6667V14.6667C6.7399 14.6667 7.87487 14.6667 8.96467 14.8698C10.1367 15.0882 11.2696 15.48 12.3261 16.0324C13.3085 16.546 14.2009 17.2472 15.9858 18.6496L16.25 18.8572L16.5142 18.6496C18.2991 17.2472 19.1915 16.546 20.1739 16.0324C21.2304 15.48 22.3633 15.0882 23.5353 14.8698C24.6251 14.6667 25.7601 14.6667 28.03 14.6667V14.6667C28.5461 14.6667 28.8041 14.6667 29.0043 14.7596C29.2187 14.8591 29.3909 15.0313 29.4904 15.2457C29.5833 15.4459 29.5833 15.7039 29.5833 16.22V24.3182C29.5833 25.1375 29.5833 25.5471 29.3577 25.8233C29.3153 25.8751 29.2679 25.9225 29.2161 25.9648C28.94 26.1905 28.5303 26.1905 27.711 26.1905V26.1905C24.8745 26.1905 23.4562 26.1905 22.0939 26.5127C21.8293 26.5753 21.5668 26.6469 21.307 26.7273C19.9698 27.1413 18.7479 27.8614 16.3041 29.3015L16.25 29.3334L16.1959 29.3015C13.7521 27.8614 12.5302 27.1413 11.193 26.7273C10.9332 26.6469 10.6707 26.5753 10.4061 26.5127C9.04381 26.1905 7.62554 26.1905 4.789 26.1905V26.1905C3.96969 26.1905 3.56004 26.1905 3.28389 25.9648C3.23209 25.9225 3.18466 25.8751 3.14233 25.8233C2.91666 25.5471 2.91666 25.1375 2.91666 24.3182V16.22Z" stroke="#6A2911" stroke-width="2" stroke-linejoin="round"/>
<path d="M16.25 18.6667V29.3334" stroke="#6A2911" stroke-width="2"/>
<ellipse cx="16.25" cy="8.00002" rx="5.33333" ry="5.33333" stroke="#6A2911" stroke-width="2" stroke-linejoin="round"/>
</svg>
