<svg width="30" height="30" viewBox="0 0 30 30" fill="none" xmlns="http://www.w3.org/2000/svg">
<path d="M16.6398 11.2347C18.5704 12.7608 21.7926 12.688 23.8368 11.0722C25.8809 9.45639 28.5833 4.09657 28.5833 4.09657C28.5833 4.09657 20.4318 1.48597 16.8454 4.32083C14.8013 5.93665 14.7092 9.70869 16.6398 11.2347Z" stroke="#3F0B2B" stroke-width="2" stroke-linejoin="round"/>
<path d="M15.25 0.333313V20.3333" stroke="#3F0B2B" stroke-width="2" stroke-linejoin="round"/>
<path d="M28.5833 26.3334V19.6667V19.6667C28.5833 18.7239 28.5833 18.2525 28.2904 17.9596C27.9975 17.6667 27.5261 17.6667 26.5833 17.6667H21.3287C21.2057 17.6667 21.1443 17.6667 21.0876 17.6732C20.7917 17.7071 20.5263 17.8711 20.3636 18.1206C20.3325 18.1684 20.305 18.2234 20.25 18.3333L20.25 18.3334C20.0851 18.6632 20.0026 18.8282 19.9091 18.9716C19.4211 19.7201 18.625 20.2122 17.7373 20.3139C17.5671 20.3334 17.3827 20.3334 17.0139 20.3334H13.4861C13.1173 20.3334 12.9328 20.3334 12.7627 20.3139C11.875 20.2122 11.0788 19.7201 10.5909 18.9716C10.4974 18.8282 10.4149 18.6632 10.25 18.3334L10.25 18.3334C10.195 18.2234 10.1675 18.1684 10.1364 18.1206C9.97371 17.8711 9.70832 17.7071 9.41243 17.6732C9.35571 17.6667 9.29424 17.6667 9.17131 17.6667H3.91666C2.97386 17.6667 2.50245 17.6667 2.20956 17.9596C1.91666 18.2525 1.91666 18.7239 1.91666 19.6667V26.3334C1.91666 27.2762 1.91666 27.7476 2.20956 28.0405C2.50245 28.3334 2.97385 28.3334 3.91666 28.3334H26.5833C27.5261 28.3334 27.9975 28.3334 28.2904 28.0405C28.5833 27.7476 28.5833 27.2762 28.5833 26.3334Z" stroke="#3F0B2B" stroke-width="2" stroke-linejoin="round"/>
<path d="M15.25 9.66669L19.9167 7.66669" stroke="#3F0B2B" stroke-width="2" stroke-linejoin="round"/>
<path d="M1.91666 23H7.25" stroke="#3F0B2B" stroke-width="2" stroke-linejoin="round"/>
<path d="M21.9167 23H28.5833" stroke="#3F0B2B" stroke-width="2" stroke-linejoin="round"/>
<path d="M9.91666 24.3333H13.9167" stroke="#3F0B2B" stroke-width="2" stroke-linejoin="round"/>
</svg>
