<svg width="33" height="32" viewBox="0 0 33 32" fill="none" xmlns="http://www.w3.org/2000/svg">
<path d="M10.9167 29.3333H8.24999C5.73583 29.3333 4.47875 29.3333 3.69771 28.5523C2.91666 27.7712 2.91666 26.5141 2.91666 24V10.6666C2.91666 8.15249 2.91666 6.89541 3.69771 6.11436C4.47875 5.33331 5.73583 5.33331 8.24999 5.33331H24.25C26.7641 5.33331 28.0212 5.33331 28.8023 6.11436C29.5833 6.89541 29.5833 8.15249 29.5833 10.6666M9.58332 1.33331V7.99998M22.9167 1.33331V7.99998M20.9167 10.6666V13.3333M28.25 13.3333L26.25 15.3333M30.9167 20.6666H28.25M28.25 28L26.25 26M20.9167 28V30.6666M15.5833 26L13.5833 28M13.5833 20.6666H10.9172M15.5833 15.3333L13.5833 13.3333M25.5833 20.6666C25.5833 23.244 23.494 25.3333 20.9167 25.3333C18.3393 25.3333 16.25 23.244 16.25 20.6666C16.25 18.0893 18.3393 16 20.9167 16C23.494 16 25.5833 18.0893 25.5833 20.6666Z" stroke="#8DC63F" stroke-width="2.5" stroke-linejoin="round"/>
</svg>
