<svg width="33" height="32" viewBox="0 0 33 32" fill="none" xmlns="http://www.w3.org/2000/svg">
<path d="M8.25002 8.00002L8.08562 7.01363L7.25002 7.15289V8.00002H8.25002ZM24.25 8.00002H25.25V7.15289L24.4144 7.01363L24.25 8.00002ZM16.25 25.3334L15.8654 26.2564L16.25 26.4167L16.6346 26.2564L16.25 25.3334ZM16.25 6.66669L16.4144 5.68029L16.25 5.65289L16.0856 5.68029L16.25 6.66669ZM13.1731 24.0513L12.7885 24.9744L13.1731 24.0513ZM19.3269 24.0513L19.7116 24.9744L19.3269 24.0513ZM12.4788 17.5621L13.1859 16.855L13.1859 16.855L12.4788 17.5621ZM20.0213 17.5621L20.7284 18.2692L20.0213 17.5621ZM8.25002 2.66669V3.66669H24.25V2.66669V1.66669H8.25002V2.66669ZM29.5834 8.00002H28.5834V24H29.5834H30.5834V8.00002H29.5834ZM24.25 29.3334V28.3334H8.25002V29.3334V30.3334H24.25V29.3334ZM2.91669 24H3.91669V8.00002H2.91669H1.91669V24H2.91669ZM8.25002 29.3334V28.3334C6.96467 28.3334 6.10126 28.3312 5.45721 28.2446C4.84193 28.1619 4.5786 28.019 4.40484 27.8452L3.69774 28.5523L2.99063 29.2594C3.59792 29.8667 4.35366 30.1143 5.19071 30.2268C5.99901 30.3355 7.02121 30.3334 8.25002 30.3334V29.3334ZM2.91669 24H1.91669C1.91669 25.2288 1.91456 26.251 2.02324 27.0593C2.13577 27.8964 2.38334 28.6521 2.99063 29.2594L3.69774 28.5523L4.40484 27.8452C4.23109 27.6714 4.08812 27.4081 4.0054 26.7928C3.91881 26.1488 3.91669 25.2854 3.91669 24H2.91669ZM29.5834 24H28.5834C28.5834 25.2854 28.5812 26.1488 28.4946 26.7928C28.4119 27.4081 28.269 27.6714 28.0952 27.8452L28.8023 28.5523L29.5094 29.2594C30.1167 28.6521 30.3643 27.8964 30.4768 27.0593C30.5855 26.251 30.5834 25.2288 30.5834 24H29.5834ZM24.25 29.3334V30.3334C25.4788 30.3334 26.501 30.3355 27.3093 30.2268C28.1464 30.1143 28.9021 29.8667 29.5094 29.2594L28.8023 28.5523L28.0952 27.8452C27.9214 28.019 27.6581 28.1619 27.0428 28.2446C26.3988 28.3312 25.5354 28.3334 24.25 28.3334V29.3334ZM24.25 2.66669V3.66669C25.5354 3.66669 26.3988 3.66881 27.0428 3.7554C27.6581 3.83812 27.9214 3.98109 28.0952 4.15484L28.8023 3.44774L29.5094 2.74063C28.9021 2.13334 28.1464 1.88577 27.3093 1.77324C26.501 1.66456 25.4788 1.66669 24.25 1.66669V2.66669ZM29.5834 8.00002H30.5834C30.5834 6.77121 30.5855 5.74901 30.4768 4.94071C30.3643 4.10366 30.1167 3.34792 29.5094 2.74063L28.8023 3.44774L28.0952 4.15484C28.269 4.3286 28.4119 4.59193 28.4946 5.20721C28.5812 5.85126 28.5834 6.71467 28.5834 8.00002H29.5834ZM8.25002 2.66669V1.66669C7.02121 1.66669 5.99901 1.66456 5.19071 1.77324C4.35366 1.88577 3.59792 2.13334 2.99063 2.74063L3.69774 3.44774L4.40484 4.15484C4.5786 3.98109 4.84193 3.83812 5.45721 3.7554C6.10126 3.66881 6.96467 3.66669 8.25002 3.66669V2.66669ZM2.91669 8.00002H3.91669C3.91669 6.71467 3.91881 5.85126 4.0054 5.20721C4.08812 4.59193 4.23109 4.3286 4.40484 4.15484L3.69774 3.44774L2.99063 2.74063C2.38334 3.34792 2.13577 4.10366 2.02324 4.94071C1.91456 5.74901 1.91669 6.77121 1.91669 8.00002H2.91669ZM24.25 8.00002H23.25V16.6667H24.25H25.25V8.00002H24.25ZM8.25002 16.6667H9.25002V8.00002H8.25002H7.25002V16.6667H8.25002ZM19.3269 24.0513L18.9423 23.1282L15.8654 24.4103L16.25 25.3334L16.6346 26.2564L19.7116 24.9744L19.3269 24.0513ZM16.25 25.3334L16.6346 24.4103L13.5577 23.1282L13.1731 24.0513L12.7885 24.9744L15.8654 26.2564L16.25 25.3334ZM8.25002 8.00002L8.41442 8.98641L16.4144 7.65308L16.25 6.66669L16.0856 5.68029L8.08562 7.01363L8.25002 8.00002ZM16.25 6.66669L16.0856 7.65308L24.0856 8.98641L24.25 8.00002L24.4144 7.01363L16.4144 5.68029L16.25 6.66669ZM8.25002 16.6667H7.25002C7.25002 20.3 9.43466 23.577 12.7885 24.9744L13.1731 24.0513L13.5577 23.1282C10.9492 22.0413 9.25002 19.4926 9.25002 16.6667H8.25002ZM24.25 16.6667H23.25C23.25 19.4926 21.5509 22.0413 18.9423 23.1282L19.3269 24.0513L19.7116 24.9744C23.0654 23.577 25.25 20.3 25.25 16.6667H24.25ZM12.25 17.3334L11.5429 18.0405L11.7717 18.2692L12.4788 17.5621L13.1859 16.855L12.9571 16.6262L12.25 17.3334ZM20.0213 17.5621L20.7284 18.2692L20.9571 18.0405L20.25 17.3334L19.5429 16.6262L19.3141 16.855L20.0213 17.5621ZM12.4788 17.5621L11.7717 18.2692C14.245 20.7425 18.255 20.7425 20.7284 18.2692L20.0213 17.5621L19.3141 16.855C17.6219 18.5473 14.8782 18.5473 13.1859 16.855L12.4788 17.5621ZM18.25 12.6667V13.6667H20.9167V12.6667V11.6667H18.25V12.6667ZM11.5834 12.6667V13.6667H14.25V12.6667V11.6667H11.5834V12.6667Z" fill="#134154"/>
</svg>
