<svg width="24" height="24" viewBox="0 0 24 24" fill="none" xmlns="http://www.w3.org/2000/svg">
<path fill-rule="evenodd" clip-rule="evenodd" d="M1 12C1 5.92487 5.92487 1 12 1C18.0751 1 23 5.92487 23 12C23 18.0751 18.0751 23 12 23C10.1326 23 8.37151 22.5339 6.82923 21.7112L1.25011 22.7499L2.28884 17.1708C1.4661 15.6285 1 13.8674 1 12ZM9.16623 13.3333L10.6947 10.7858C10.993 10.2887 10.9781 9.66432 10.6566 9.18201L9.24811 7.06932C8.65438 6.17872 7.34569 6.17872 6.75196 7.06932L5.69453 8.65546C5.15863 9.45932 5.13386 10.5 5.63093 11.3284L7.56374 14.5498C8.02821 15.3239 8.6761 15.9718 9.45022 16.4363L12.6716 18.3691C13.5 18.8662 14.5407 18.8414 15.3446 18.3055L16.9307 17.2481C17.8213 16.6543 17.8213 15.3456 16.9307 14.7519L14.818 13.3434C14.3357 13.0219 13.7113 13.007 13.2142 13.3053L10.6667 14.8338L10.4792 14.7213C9.98659 14.4257 9.5743 14.0134 9.27872 13.5208L9.16623 13.3333Z" fill="#004C7F"/>
</svg>
