<svg width="25" height="24" viewBox="0 0 25 24" fill="none" xmlns="http://www.w3.org/2000/svg">
<path d="M23.617 6.654C23.34 5.61 22.522 4.787 21.484 4.508C19.603 4 12.061 4 12.061 4C12.061 4 4.51801 4 2.63701 4.508C1.59901 4.787 0.782013 5.61 0.504013 6.654C1.30534e-05 8.54696 0 12.497 0 12.497C0 12.497 1.30534e-05 16.447 0.504013 18.341C0.782013 19.385 1.59901 20.208 2.63701 20.487C4.51801 20.994 12.061 20.994 12.061 20.994C12.061 20.994 19.603 20.994 21.484 20.487C22.522 20.208 23.34 19.385 23.617 18.341C24.121 16.447 24.121 12.497 24.121 12.497C24.121 12.497 24.121 8.54696 23.617 6.654Z" fill="#fff"/>
<path d="M9.59401 16.0836V8.91056L15.898 12.4976L9.59401 16.0836Z" fill="#005F71"/>
</svg>
