<svg width="24" height="24" viewBox="0 0 24 24" fill="none" xmlns="http://www.w3.org/2000/svg">
<path fill-rule="evenodd" clip-rule="evenodd" d="M8.94606 4H15.0539H15.054C16.4126 3.99999 17.5083 3.99997 18.3874 4.0894C19.2948 4.18171 20.0817 4.3775 20.7779 4.84265C21.3238 5.20745 21.7926 5.6762 22.1573 6.22215C22.6225 6.91829 22.8183 7.70523 22.9106 8.61264C23 9.49172 23 10.5874 23 11.946V12.054C23 13.4126 23 14.5083 22.9106 15.3874C22.8183 16.2948 22.6225 17.0817 22.1573 17.7779C21.7926 18.3238 21.3238 18.7926 20.7779 19.1573C20.0817 19.6225 19.2948 19.8183 18.3874 19.9106C17.5083 20 16.4126 20 15.054 20H8.946C7.58735 20 6.49173 20 5.61265 19.9106C4.70523 19.8183 3.91829 19.6225 3.22215 19.1573C2.6762 18.7926 2.20745 18.3238 1.84265 17.7779C1.37751 17.0817 1.18171 16.2948 1.0894 15.3874C0.999974 14.5083 0.999986 13.4126 1 12.054V12.0539V11.946V11.946C0.999986 10.5874 0.999974 9.49173 1.0894 8.61264C1.18171 7.70523 1.37751 6.91829 1.84265 6.22215C2.20745 5.6762 2.6762 5.20745 3.22215 4.84265C3.91829 4.3775 4.70523 4.18171 5.61264 4.0894C6.49173 3.99997 7.58739 3.99999 8.94605 4H8.94606ZM15 12L10 15V9L15 12Z" fill="#004C7F"/>
</svg>
