<svg xmlns="http://www.w3.org/2000/svg" width="32" height="32" viewBox="0 0 32 32" fill="none">
  <path fill-rule="evenodd" clip-rule="evenodd" d="M27.4598 5.94682C28.7227 6.28487 29.7152 7.2773 30.0532 8.54017C30.6641 10.8268 30.6666 15.6006 30.6666 15.6006C30.6666 15.6006 30.6666 20.3745 30.0532 22.6611C29.7152 23.924 28.7227 24.9164 27.4598 25.2544C25.1733 25.8678 15.9999 25.8678 15.9999 25.8678C15.9999 25.8678 6.8266 25.8678 4.53992 25.2544C3.27706 24.9164 2.28463 23.924 1.94658 22.6611C1.33325 20.3745 1.33325 15.6006 1.33325 15.6006C1.33325 15.6006 1.33325 10.8268 1.94658 8.54017C2.28463 7.2773 3.27706 6.28487 4.53992 5.94682C6.8266 5.3335 15.9999 5.3335 15.9999 5.3335C15.9999 5.3335 25.1733 5.3335 27.4598 5.94682ZM20.6845 15.6011L13.0638 20.0005V11.2015L20.6845 15.6011Z" fill="#161A1F"/>
</svg>